<svg xmlns="http://www.w3.org/2000/svg" xmlns:xlink="http://www.w3.org/1999/xlink" width="1366" zoomAndPan="magnify" viewBox="0 0 1024.5 576" height="768" preserveAspectRatio="xMidYMid meet" version="1.0"><defs><filter x="0%" y="0%" width="100%" height="100%" id="b95b6bad24"><feColorMatrix values="0 0 0 0 1 0 0 0 0 1 0 0 0 0 1 0 0 0 1 0" color-interpolation-filters="sRGB"/></filter><clipPath id="8e5df8e845"><path d="M 482 143 L 839.726562 143 L 839.726562 575.859375 L 482 575.859375 Z M 482 143 " clip-rule="nonzero"/></clipPath><mask id="6420e2f76c"><g filter="url(#b95b6bad24)"><rect x="-102.45" width="1229.4" fill="#000000" y="-57.6" height="691.2" fill-opacity="0.298"/></g></mask><clipPath id="d6d47e99b3"><path d="M 0.457031 1 L 496.535156 1 L 496.535156 475 L 0.457031 475 Z M 0.457031 1 " clip-rule="nonzero"/></clipPath><clipPath id="426e109105"><rect x="0" width="497" y="0" height="476"/></clipPath><clipPath id="9d2409c661"><path d="M 184.976562 255 L 442 255 L 442 571 L 184.976562 571 Z M 184.976562 255 " clip-rule="nonzero"/></clipPath></defs><path fill="#ccb4af" d="M 482.332031 255.300781 L 185.25 255.300781 L 185.25 269.882812 L 196.972656 269.882812 L 196.972656 570.316406 L 220.929688 570.316406 L 220.929688 287.410156 L 292.285156 287.410156 L 292.285156 569.449219 L 316.246094 569.449219 L 316.246094 287.410156 L 330.136719 287.410156 L 330.136719 570.316406 L 363.542969 570.316406 L 363.542969 287.410156 L 425.019531 287.410156 L 425.019531 568.695312 L 448.976562 568.695312 L 448.976562 269.882812 L 482.332031 269.882812 Z M 482.332031 255.300781 " fill-opacity="1" fill-rule="nonzero"/><path fill="#fbd8b7" d="M 459.480469 431.195312 C 459.480469 431.195312 463.3125 446.5 462.394531 467.914062 C 461.476562 489.328125 460.621094 509.613281 458.984375 514.035156 C 457.34375 518.457031 422.6875 540.730469 422.6875 540.730469 C 422.6875 540.730469 434.210938 561.433594 434.554688 561.476562 C 434.898438 561.523438 499.191406 554.824219 499.191406 554.824219 C 499.191406 554.824219 496.421875 509.722656 497.1875 498.707031 C 497.949219 487.691406 502.515625 456.605469 504.714844 446.65625 C 506.910156 436.707031 509.832031 429.214844 509.832031 429.214844 Z M 459.480469 431.195312 " fill-opacity="1" fill-rule="nonzero"/><path fill="#ccb4af" d="M 597.375 284.460938 C 597.375 284.460938 555.144531 263.285156 499.761719 270.230469 C 499.761719 270.230469 484.441406 272.359375 474.945312 330.375 L 471.328125 328.195312 L 443.386719 393.03125 L 437 427.714844 C 473.199219 438.910156 509.832031 433.480469 509.832031 433.480469 C 512.621094 413.773438 514.53125 378.289062 515.277344 362.664062 C 534.722656 373.144531 559.386719 383.59375 585.527344 387.554688 L 673.203125 387.554688 C 673.203125 387.554688 708.101562 376.796875 724.941406 328.023438 C 724.941406 328.023438 649.503906 284.980469 597.375 284.460938 Z M 597.375 284.460938 " fill-opacity="1" fill-rule="nonzero"/><path fill="#ccb4af" d="M 597.375 284.460938 C 597.375 284.460938 551.671875 249.964844 527.453125 235.125 C 503.230469 220.285156 476.148438 216.121094 458.4375 233.953125 C 440.730469 251.789062 430.574219 274.828125 421.199219 291.75 C 413.335938 305.941406 384.496094 351.722656 375.398438 366.125 C 373.414062 369.269531 373.398438 373.261719 375.375 376.410156 C 378.75 381.777344 385.992188 389.609375 400.972656 394.671875 C 425.625 403.003906 439.515625 399.183594 439.515625 399.183594 C 439.515625 399.183594 469.898438 352.148438 478.058594 324.902344 C 486.21875 297.652344 487.257812 272.660156 517.121094 271.617188 C 546.984375 270.574219 597.375 284.460938 597.375 284.460938 Z M 597.375 284.460938 " fill-opacity="1" fill-rule="nonzero"/><path fill="#55413a" d="M 406.011719 379.714844 C 406.011719 379.714844 383.859375 368.757812 377.179688 372.019531 C 370.5 375.277344 400.128906 393.03125 400.128906 393.03125 C 400.128906 393.03125 406.882812 390.980469 406.011719 379.714844 Z M 406.011719 379.714844 " fill-opacity="1" fill-rule="nonzero"/><path fill="#e5b4a4" d="M 424.894531 539.300781 C 424.894531 539.300781 432.15625 549.386719 434.277344 555.640625 L 498.855469 549.117188 C 498.855469 549.117188 500.636719 558.433594 499.886719 568.050781 C 499.886719 568.050781 487.722656 569.628906 462.105469 569.644531 C 436.488281 569.65625 403.960938 571.953125 393.117188 570.515625 C 382.273438 569.074219 381.03125 568.210938 379.894531 564.558594 C 378.761719 560.90625 395.730469 554.441406 407.328125 548.890625 C 418.925781 543.339844 424.894531 539.300781 424.894531 539.300781 Z M 424.894531 539.300781 " fill-opacity="1" fill-rule="nonzero"/><path fill="#fbd8b7" d="M 650.03125 189.765625 L 631.535156 201.5 L 619.382812 248.878906 L 652.195312 221.632812 Z M 650.03125 189.765625 " fill-opacity="1" fill-rule="nonzero"/><path fill="#fbd8b7" d="M 670.050781 22.457031 C 670.050781 22.457031 653.574219 33.140625 657.371094 59.488281 C 657.820312 62.582031 656.761719 65.75 654.433594 67.835938 C 653.570312 68.609375 652.726562 69.648438 652.078125 71.027344 C 652.078125 71.027344 650.175781 77.164062 661.441406 75.40625 C 661.441406 75.40625 659.292969 83.117188 662.027344 84.226562 C 662.027344 84.226562 661.074219 88.09375 661.496094 93.183594 C 661.789062 96.734375 663.515625 100.085938 666.433594 102.132812 C 670.398438 104.914062 677.484375 109.460938 690.425781 106.320312 L 695.273438 130.789062 C 695.273438 130.789062 687.808594 137.953125 681.625 143.941406 C 675.4375 149.929688 665.28125 165.613281 660.984375 175.574219 C 656.6875 185.53125 651.804688 210.980469 651.804688 210.980469 C 651.804688 210.980469 671.011719 177.851562 684.421875 166.589844 C 697.835938 155.332031 717.886719 138.34375 729.804688 134.503906 C 741.71875 130.664062 744.839844 126.097656 744.839844 126.097656 L 732.679688 116.570312 L 730.0625 88.226562 L 709.292969 22.167969 L 675.4375 19.953125 Z M 670.050781 22.457031 " fill-opacity="1" fill-rule="nonzero"/><path fill="#55413a" d="M 659.328125 32.972656 C 659.328125 32.972656 664.957031 11.753906 682.40625 6.15625 C 699.855469 0.558594 715.609375 5.375 718.082031 10.320312 C 718.082031 10.320312 735.964844 13.878906 739.960938 37.136719 C 743.953125 60.394531 732.207031 77.269531 731.1875 100.390625 C 731.1875 100.390625 719.644531 92.847656 716.128906 82.304688 C 716.128906 82.304688 714.046875 88.617188 715.871094 94.019531 C 715.871094 94.019531 698.835938 81.714844 699.53125 68.003906 C 700.226562 54.292969 707.277344 45.464844 707.277344 45.464844 L 691.242188 58.109375 C 689.796875 59.246094 687.699219 58.039062 687.960938 56.21875 L 690.347656 39.609375 C 690.347656 39.609375 676.445312 38.710938 675.335938 23.675781 C 675.335938 23.675781 673.683594 31.894531 674.464844 36.253906 C 674.464844 36.253906 666.304688 32.644531 669.507812 22.847656 Z M 659.328125 32.972656 " fill-opacity="1" fill-rule="nonzero"/><path fill="#fbd8b7" d="M 703.375 42.277344 C 703.871094 42.390625 704.34375 42.578125 704.792969 42.847656 C 705.242188 43.113281 705.664062 43.457031 706.050781 43.875 C 706.4375 44.289062 706.785156 44.769531 707.097656 45.320312 C 707.40625 45.867188 707.671875 46.472656 707.894531 47.128906 C 708.113281 47.789062 708.285156 48.492188 708.410156 49.234375 C 708.53125 49.980469 708.605469 50.75 708.625 51.554688 C 708.644531 52.355469 708.613281 53.167969 708.53125 53.996094 C 708.449219 54.824219 708.316406 55.648438 708.132812 56.46875 C 707.949219 57.289062 707.722656 58.09375 707.445312 58.878906 C 707.167969 59.664062 706.851562 60.414062 706.492188 61.128906 C 706.136719 61.847656 705.742188 62.515625 705.316406 63.136719 C 704.886719 63.761719 704.433594 64.324219 703.957031 64.824219 C 703.476562 65.328125 702.980469 65.761719 702.464844 66.128906 C 701.953125 66.492188 701.433594 66.78125 700.90625 66.992188 C 700.378906 67.207031 699.851562 67.339844 699.332031 67.390625 C 698.808594 67.445312 698.300781 67.414062 697.808594 67.304688 C 697.3125 67.195312 696.839844 67.003906 696.390625 66.738281 C 695.9375 66.46875 695.519531 66.125 695.132812 65.710938 C 694.746094 65.292969 694.394531 64.8125 694.085938 64.265625 C 693.777344 63.714844 693.511719 63.113281 693.289062 62.453125 C 693.070312 61.792969 692.894531 61.09375 692.773438 60.347656 C 692.648438 59.605469 692.578125 58.832031 692.558594 58.03125 C 692.539062 57.230469 692.570312 56.414062 692.652344 55.585938 C 692.734375 54.761719 692.867188 53.9375 693.050781 53.113281 C 693.230469 52.292969 693.460938 51.488281 693.738281 50.707031 C 694.011719 49.921875 694.332031 49.171875 694.6875 48.453125 C 695.046875 47.738281 695.441406 47.066406 695.867188 46.445312 C 696.292969 45.824219 696.75 45.261719 697.226562 44.757812 C 697.707031 44.253906 698.203125 43.820312 698.71875 43.457031 C 699.230469 43.089844 699.75 42.800781 700.277344 42.589844 C 700.804688 42.375 701.328125 42.246094 701.851562 42.191406 C 702.371094 42.140625 702.882812 42.167969 703.375 42.277344 Z M 703.375 42.277344 " fill-opacity="1" fill-rule="nonzero"/><path fill="#55413a" d="M 691.457031 134.320312 C 691.457031 134.320312 689.089844 137.960938 685.964844 142.5625 C 682.839844 147.160156 669.382812 162.503906 664.867188 172.570312 C 660.351562 182.636719 659.867188 195.804688 659.867188 195.804688 C 659.867188 195.804688 669.472656 169.390625 694.039062 151.859375 C 718.605469 134.332031 732.148438 125.566406 747.511719 127.214844 C 747.511719 127.214844 772.511719 138.800781 776.160156 179.414062 C 776.160156 179.414062 748.902344 278.386719 724.941406 328.023438 C 724.941406 328.023438 716.652344 348.375 687.746094 331.191406 C 658.835938 314.007812 618.601562 286.542969 618.601562 286.542969 L 645.597656 223.714844 C 645.597656 223.714844 638.394531 221.785156 639.890625 215.46875 C 641.386719 209.15625 652.628906 185.445312 656.882812 171.039062 C 661.136719 156.632812 665.910156 148.300781 673.378906 143.789062 C 680.84375 139.277344 691.457031 134.320312 691.457031 134.320312 Z M 691.457031 134.320312 " fill-opacity="1" fill-rule="nonzero"/><path fill="#fbd8b7" d="M 741.957031 173.035156 C 728.242188 157.066406 701.328125 165.746094 701.328125 165.746094 L 687.09375 185.921875 C 687.09375 185.921875 664.304688 206.097656 651.675781 216.511719 C 644.121094 222.738281 634.90625 228.816406 627.0625 233.679688 C 630.90625 224.390625 634.226562 214.6875 634.226562 214.6875 C 635.984375 203.363281 636.390625 212.480469 637.039062 200.113281 C 637.691406 187.746094 643.925781 150.773438 643.925781 150.773438 C 655.257812 152.402344 656.753906 146.480469 656.753906 146.480469 C 656.753906 146.480469 659.835938 148.867188 662.484375 147.042969 C 665.128906 145.222656 672.945312 135.890625 672.945312 135.890625 C 671.597656 139.40625 673.160156 143.421875 674.105469 144.007812 C 675.046875 144.59375 676.804688 144.007812 678.140625 142.476562 C 679.476562 140.949219 682.730469 135.1875 683.609375 133.984375 C 684.488281 132.777344 686.28125 132.324219 687.808594 131.542969 C 689.339844 130.761719 690.738281 126.171875 690.738281 126.171875 C 690.292969 128.441406 690.457031 130.425781 690.738281 131.859375 C 691.015625 133.253906 692.472656 134.074219 693.796875 133.558594 C 698.835938 131.589844 697.949219 126.710938 697.378906 123.0625 C 696.730469 118.894531 694.886719 106.257812 693.105469 103.828125 C 691.328125 101.398438 672.378906 101.476562 672.378906 101.476562 C 666.085938 99.390625 663.871094 102.351562 663.871094 102.351562 C 657.273438 98.792969 653.324219 107.253906 653.324219 107.253906 C 650.546875 105.867188 646.640625 105.691406 643.082031 107.773438 C 639.523438 109.859375 621.335938 132.160156 618.601562 139.191406 C 615.867188 146.21875 602.324219 191.648438 597.117188 215.210938 C 591.90625 238.769531 590.734375 253.609375 597.117188 256.472656 C 598.507812 257.097656 600.09375 257.394531 601.773438 257.4375 C 598.804688 264.699219 598.1875 272.976562 603.757812 279.382812 C 614.953125 292.269531 631.882812 293.765625 653.238281 276.0625 C 674.59375 258.359375 685.929688 248.351562 702.980469 237.597656 C 733.578125 218.304688 744.734375 204.125 744.734375 204.125 C 744.734375 204.125 755.671875 189 741.957031 173.035156 Z M 741.957031 173.035156 " fill-opacity="1" fill-rule="nonzero"/><path fill="#55413a" d="M 755.84375 154.03125 C 743.476562 138.667969 729.933594 139.320312 713.917969 149.863281 C 697.902344 160.40625 687.09375 185.921875 687.09375 185.921875 C 687.09375 185.921875 693.859375 177.046875 700.914062 171.828125 C 704.386719 169.257812 708.25 168.8125 712.355469 170.171875 C 716.464844 171.53125 722.167969 175.640625 729.542969 182.277344 C 738.507812 190.34375 742.753906 198.597656 744.746094 204.171875 C 741.976562 208.023438 731.558594 218.304688 731.558594 218.304688 C 736.132812 216.105469 746.46875 210.980469 746.46875 210.980469 C 764.699219 200.371094 768.214844 169.390625 755.84375 154.03125 Z M 755.84375 154.03125 " fill-opacity="1" fill-rule="nonzero"/><path fill="#55413a" d="M 664.660156 59.265625 C 664.789062 59.699219 664.867188 60.132812 664.894531 60.5625 C 664.925781 60.992188 664.90625 61.382812 664.835938 61.738281 C 664.761719 62.09375 664.644531 62.386719 664.484375 62.613281 C 664.320312 62.84375 664.125 62.992188 663.898438 63.058594 C 663.667969 63.125 663.425781 63.105469 663.164062 63 C 662.90625 62.894531 662.648438 62.710938 662.398438 62.449219 C 662.144531 62.1875 661.917969 61.867188 661.710938 61.492188 C 661.507812 61.113281 661.339844 60.707031 661.214844 60.269531 C 661.085938 59.832031 661.007812 59.402344 660.976562 58.972656 C 660.945312 58.542969 660.96875 58.152344 661.039062 57.796875 C 661.109375 57.441406 661.226562 57.148438 661.390625 56.921875 C 661.550781 56.691406 661.746094 56.542969 661.976562 56.476562 C 662.203125 56.410156 662.449219 56.429688 662.707031 56.535156 C 662.96875 56.640625 663.222656 56.824219 663.476562 57.085938 C 663.726562 57.347656 663.957031 57.667969 664.160156 58.042969 C 664.367188 58.421875 664.53125 58.828125 664.660156 59.265625 Z M 664.660156 59.265625 " fill-opacity="1" fill-rule="nonzero"/><path fill="#fbd8b7" d="M 439.515625 399.183594 L 406.011719 379.714844 L 399.84375 393.675781 C 399.84375 393.675781 391.054688 416 385.714844 422.574219 C 380.375 429.144531 358.628906 432.203125 358.628906 432.203125 C 358.628906 432.203125 369.570312 445.546875 367.941406 461.949219 C 367.941406 461.949219 387.34375 468.175781 396.804688 468.347656 C 406.265625 468.523438 424.410156 473.207031 424.410156 473.207031 C 424.410156 473.207031 426.578125 470 424.0625 460.539062 C 421.546875 451.078125 418.59375 443.425781 427.015625 426.867188 C 435.433594 410.308594 439.515625 399.183594 439.515625 399.183594 Z M 439.515625 399.183594 " fill-opacity="1" fill-rule="nonzero"/><path fill="#e5b4a4" d="M 363.382812 430.339844 C 363.382812 430.339844 370.328125 439.453125 372.410156 456.375 C 372.410156 456.375 384.152344 462.449219 399.074219 464.011719 C 413.992188 465.574219 425.019531 471.421875 425.019531 471.421875 L 423.367188 483.1875 C 423.367188 483.1875 424.582031 489.003906 401.144531 485.617188 C 377.707031 482.234375 368.851562 475.726562 350.015625 473.644531 C 331.175781 471.558594 311.039062 462.621094 301.140625 454.898438 C 291.246094 447.175781 294.542969 443.878906 299.40625 442.140625 C 304.265625 440.40625 347.585938 434.503906 363.382812 430.339844 Z M 363.382812 430.339844 " fill-opacity="1" fill-rule="nonzero"/><path fill="#ccb4af" d="M 747.511719 127.214844 L 740.785156 117.699219 C 740.785156 117.699219 714.722656 130.402344 706.820312 135.078125 C 698.917969 139.75 682.988281 152.316406 677.472656 160.121094 C 671.957031 167.929688 662.027344 186.917969 662.027344 186.917969 C 662.027344 186.917969 664.4375 172.105469 672.878906 161.386719 C 681.320312 150.664062 691.824219 140.515625 692.765625 133.703125 L 690.871094 130.257812 C 690.871094 130.257812 688.226562 136.492188 681.625 143.941406 C 675.019531 151.390625 660.902344 172.3125 659.328125 185.386719 C 657.75 198.460938 656.457031 203.292969 656.457031 203.292969 C 656.457031 203.292969 676.105469 172.328125 685.980469 163.390625 C 695.855469 154.453125 747.511719 127.214844 747.511719 127.214844 Z M 747.511719 127.214844 " fill-opacity="1" fill-rule="nonzero"/><path fill="#c97061" d="M 759.796875 289.746094 L 754.664062 285.609375 C 745.769531 278.449219 742.503906 266.378906 746.566406 255.710938 L 779.585938 169.050781 C 783.652344 158.382812 794.121094 151.542969 805.527344 152.109375 L 812.113281 152.4375 Z M 759.796875 289.746094 " fill-opacity="1" fill-rule="nonzero"/><path fill="#c97061" d="M 720.082031 385.996094 L 561.050781 385.996094 C 551.078125 385.996094 542.996094 394.074219 542.996094 404.042969 L 725.117188 422.851562 Z M 720.082031 385.996094 " fill-opacity="1" fill-rule="nonzero"/><g clip-path="url(#8e5df8e845)"><path fill="#e5b4a4" d="M 750.484375 381.449219 L 838.949219 156.78125 C 839.730469 154.789062 838.660156 152.503906 836.558594 151.683594 L 816.203125 143.722656 C 814.101562 142.902344 811.765625 143.851562 810.984375 145.847656 L 751.652344 297.476562 L 550.761719 297.476562 C 549.25 297.476562 548.023438 298.703125 548.023438 300.210938 L 548.023438 321.300781 C 548.023438 322.808594 549.25 324.03125 550.761719 324.03125 L 570.683594 324.03125 L 570.683594 404.042969 L 535.332031 404.042969 C 534.15625 404.042969 533.121094 404.816406 532.785156 405.945312 L 482.195312 575.792969 L 515.828125 575.863281 L 559.308594 429.875 L 721.996094 429.875 L 765.476562 575.863281 L 799.105469 575.792969 L 747.953125 404.042969 L 747.902344 404.042969 L 747.902344 395.054688 C 747.902344 390.398438 748.777344 385.78125 750.484375 381.449219 Z M 714.300781 404.042969 L 589.171875 404.042969 L 589.171875 324.03125 L 741.261719 324.03125 L 716.226562 388.007812 L 716.226562 404.042969 Z M 714.300781 404.042969 " fill-opacity="1" fill-rule="nonzero"/></g><path fill="#fbd8b7" d="M 403.96875 248.792969 L 363.542969 248.792969 L 351.300781 166.414062 C 350.914062 163.792969 348.648438 161.855469 345.996094 161.878906 L 229.953125 162.828125 C 226.617188 162.855469 224.128906 165.90625 224.773438 169.175781 L 240.460938 248.792969 L 241.5625 248.792969 C 240.445312 248.792969 239.703125 249.941406 240.171875 250.949219 L 241.78125 255.164062 C 242.03125 255.703125 242.574219 256.050781 243.171875 256.050781 L 402.359375 256.050781 C 402.957031 256.050781 403.503906 255.703125 403.753906 255.164062 L 405.363281 250.949219 C 405.828125 249.941406 405.085938 248.792969 403.96875 248.792969 Z M 403.96875 248.792969 " fill-opacity="1" fill-rule="nonzero"/><path fill="#ccb4af" d="M 355.050781 242.804688 L 246.972656 242.804688 L 234.472656 172.773438 L 342.800781 171.710938 Z M 355.050781 242.804688 " fill-opacity="1" fill-rule="nonzero"/><path fill="#c97061" d="M 267.914062 242.804688 C 267.914062 242.804688 267.621094 218.074219 277.960938 214.171875 C 288.300781 210.265625 311.503906 210.125 315.597656 213.4375 C 319.316406 216.453125 328.089844 233.09375 331.585938 239.902344 C 332.269531 241.230469 331.300781 242.804688 329.804688 242.804688 Z M 267.914062 242.804688 " fill-opacity="1" fill-rule="nonzero"/><path fill="#55413a" d="M 297.101562 183.050781 C 297.101562 183.050781 302.347656 181.785156 304.417969 185.003906 C 306.484375 188.21875 307.90625 207.257812 307.90625 207.257812 L 296.402344 208.25 L 294.128906 184.472656 Z M 297.101562 183.050781 " fill-opacity="1" fill-rule="nonzero"/><path fill="#fbd8b7" d="M 303.636719 192.628906 C 302.714844 186.480469 300.871094 185.007812 300.871094 185.007812 C 300.871094 185.007812 292.511719 184.761719 288.445312 188.203125 C 284.378906 191.644531 288.445312 201.722656 288.445312 201.722656 C 288.445312 201.722656 288.492188 201.753906 288.566406 201.796875 L 288.566406 211.820312 L 285.546875 212.261719 C 285.546875 212.261719 297.667969 218.820312 300.253906 218.273438 C 302.839844 217.730469 302.710938 211.117188 302.710938 211.117188 L 297.839844 211.085938 L 297.175781 205.890625 C 298.566406 206.332031 299.910156 206.601562 301.019531 206.542969 C 305.445312 206.296875 304.5625 198.773438 303.636719 192.628906 Z M 303.636719 192.628906 " fill-opacity="1" fill-rule="nonzero"/><path fill="#55413a" d="M 297.101562 183.050781 C 297.101562 183.050781 296.402344 195.207031 293.171875 200.113281 C 289.941406 205.019531 290.328125 209.210938 290.328125 209.210938 L 281.539062 209.210938 C 281.539062 209.210938 281.15625 189.640625 285.546875 185.636719 C 289.941406 181.628906 297.101562 183.050781 297.101562 183.050781 Z M 297.101562 183.050781 " fill-opacity="1" fill-rule="nonzero"/><path fill="#fbd8b7" d="M 330.363281 241.21875 C 330.363281 241.21875 334.773438 232.632812 337.289062 228.613281 C 337.910156 228.636719 338.523438 228.375 339.015625 227.996094 C 339.507812 227.613281 339.898438 227.113281 340.25 226.597656 C 340.589844 226.109375 341.019531 225.679688 341.296875 225.152344 C 341.726562 224.332031 342.15625 223.507812 342.589844 222.6875 C 342.703125 222.46875 342.816406 222.25 342.886719 222.015625 C 343.023438 221.554688 343.085938 220.972656 342.855469 220.550781 C 342.761719 220.378906 342.863281 220.171875 342.941406 219.992188 C 343.191406 219.414062 343.160156 218.707031 342.878906 218.144531 C 343.070312 217.832031 343.203125 217.492188 343.28125 217.140625 C 343.3125 216.992188 343.332031 216.839844 343.28125 216.699219 C 343.1875 216.417969 342.84375 216.289062 342.550781 216.335938 C 342.257812 216.386719 341.835938 216.765625 341.59375 216.9375 C 341.207031 216.878906 340.808594 217.03125 340.496094 217.265625 C 340.183594 217.503906 339.945312 217.820312 339.714844 218.140625 C 338.859375 219.347656 338.070312 220.609375 336.890625 221.503906 C 336.589844 220.984375 336.285156 220.445312 336.242188 219.851562 C 336.226562 219.617188 336.253906 219.386719 336.265625 219.152344 C 336.328125 217.882812 335.957031 216.597656 335.226562 215.554688 C 335.101562 215.375 334.941406 215.191406 334.726562 215.167969 C 334.507812 215.144531 334.226562 215.597656 334.359375 215.769531 C 334.46875 216.949219 334.167969 218.6875 333.878906 220.023438 C 333.5625 221.449219 333.476562 222.917969 333.601562 224.375 L 333.71875 225.707031 L 327.023438 233.417969 C 326.710938 234.253906 326.449219 235.003906 326.242188 235.699219 C 325.425781 238.457031 327.484375 241.21875 330.363281 241.21875 Z M 330.363281 241.21875 " fill-opacity="1" fill-rule="nonzero"/><g mask="url(#6420e2f76c)"><g transform="matrix(1, 0, 0, 1, 208, 96)"><g clip-path="url(#426e109105)"><g clip-path="url(#d6d47e99b3)"><path fill="#55413a" d="M 0.949219 191.277344 L 13.332031 191.277344 L 13.332031 474.316406 L 0.949219 474.316406 Z M 121.925781 173.882812 L 122.136719 340.679688 C 129.144531 339.515625 136.355469 338.285156 142.648438 337.089844 L 142.449219 173.882812 Z M 84.285156 473.449219 L 108.246094 473.449219 L 108.246094 367.792969 C 102.15625 364.945312 96.90625 361.835938 93.140625 358.898438 C 83.246094 351.175781 86.542969 347.878906 91.40625 346.140625 C 93.136719 345.523438 99.746094 344.378906 108.246094 342.96875 L 108.246094 191.277344 L 84.285156 191.277344 Z M 122.136719 373.230469 L 122.136719 474.316406 L 142.621094 474.316406 L 142.621094 377.722656 C 142.414062 377.699219 142.222656 377.664062 142.015625 377.644531 C 135.378906 376.910156 128.589844 375.3125 122.136719 373.230469 Z M 476.777344 9.160156 C 467.796875 11.652344 457.222656 5.359375 457.222656 5.359375 C 456.496094 5.648438 455.871094 6.351562 455.871094 6.351562 C 455.871094 6.351562 454.027344 5.21875 451.328125 5.644531 C 447.566406 6.238281 445.324219 11.253906 445.324219 11.253906 L 447.886719 16.667969 C 450.890625 12.738281 459.261719 19.464844 459.261719 19.464844 C 462.703125 16.996094 471.40625 24.511719 471.40625 24.511719 C 472.988281 19.417969 479.429688 20.789062 479.429688 20.789062 C 481.359375 19.0625 484.675781 21.699219 484.675781 21.699219 L 496.191406 1.394531 C 490.699219 5.023438 476.777344 9.160156 476.777344 9.160156 Z M 442.03125 93.765625 L 429.480469 101.726562 L 431.5 83.09375 L 414.578125 140.425781 L 435.464844 126.804688 C 433.472656 125.699219 430.945312 123.460938 431.890625 119.46875 C 432.828125 115.523438 437.566406 104.785156 442.03125 93.765625 Z M 235.386719 297.03125 L 229 331.714844 C 265.199219 342.90625 301.832031 337.480469 301.832031 337.480469 C 304.621094 317.773438 306.53125 282.289062 307.277344 266.664062 C 282.425781 253.273438 263.792969 237.574219 263.789062 237.570312 C 255.359375 257.972656 242.496094 285.5625 235.386719 297.03125 Z M 198.011719 283.714844 L 196.035156 288.183594 L 227.234375 313.550781 L 231.515625 303.183594 Z M 198.011719 283.714844 " fill-opacity="1" fill-rule="nonzero"/></g></g></g></g><path fill="#55413a" d="M 669.148438 121.226562 C 669.414062 122.582031 669.316406 123.996094 668.882812 125.300781 C 668.679688 125.945312 668.351562 126.589844 668.019531 127.136719 C 667.703125 127.683594 667.371094 128.226562 667.039062 128.765625 C 665.820312 130.765625 664.589844 132.757812 663.300781 134.71875 C 663.40625 135.199219 663.503906 135.683594 663.574219 136.183594 C 663.75 137.339844 663.707031 138.695312 663.214844 139.863281 C 662.742188 141.054688 661.726562 142.097656 660.488281 142.542969 C 659.875 142.773438 659.226562 142.875 658.570312 142.851562 C 658.40625 142.847656 658.242188 142.824219 658.070312 142.800781 C 657.859375 142.738281 657.585938 142.660156 657.460938 142.554688 C 657.285156 142.449219 657.144531 142.335938 657.011719 142.21875 C 656.574219 142.773438 656.089844 143.277344 655.5625 143.734375 C 655.707031 143.96875 655.839844 144.207031 655.964844 144.425781 C 656.136719 144.699219 656.273438 144.976562 656.445312 145.199219 C 656.601562 145.4375 656.777344 145.621094 656.96875 145.816406 C 657.164062 146.003906 657.417969 146.132812 657.734375 146.316406 L 657.773438 146.335938 C 657.898438 146.410156 657.945312 146.566406 657.871094 146.695312 C 657.839844 146.75 657.792969 146.789062 657.734375 146.808594 C 657.339844 146.957031 656.867188 146.957031 656.429688 146.785156 C 655.996094 146.621094 655.644531 146.296875 655.382812 145.953125 C 655.132812 145.59375 654.96875 145.203125 654.894531 144.804688 C 654.867188 144.648438 654.855469 144.496094 654.84375 144.34375 C 653.746094 145.164062 652.53125 145.835938 651.273438 146.386719 C 650.054688 146.859375 648.757812 147.246094 647.320312 147.164062 C 646.613281 147.113281 645.820312 146.902344 645.203125 146.332031 C 644.582031 145.773438 644.3125 144.9375 644.265625 144.214844 C 644.199219 142.742188 644.660156 141.46875 645.15625 140.265625 C 645.667969 139.058594 646.300781 137.933594 647.011719 136.859375 C 648.425781 134.714844 649.996094 132.6875 651.96875 131 C 652.082031 130.902344 652.257812 130.914062 652.355469 131.03125 C 652.449219 131.140625 652.445312 131.296875 652.347656 131.398438 L 652.335938 131.410156 C 650.648438 133.21875 649.21875 135.308594 647.945312 137.433594 C 647.324219 138.511719 646.753906 139.613281 646.28125 140.734375 C 645.832031 141.851562 645.46875 143.050781 645.542969 144.117188 C 645.621094 145.183594 646.292969 145.84375 647.425781 145.921875 C 648.523438 146.019531 649.730469 145.710938 650.863281 145.308594 C 652.011719 144.914062 653.125 144.371094 654.171875 143.722656 C 655.058594 143.1875 655.886719 142.546875 656.617188 141.820312 C 655.027344 139.964844 654.15625 137.804688 653.523438 135.59375 C 652.917969 133.394531 652.71875 131.105469 652.8125 128.84375 C 650.246094 125.105469 647.738281 121.324219 645.222656 117.550781 C 645.144531 117.4375 645.175781 117.28125 645.289062 117.207031 C 645.402344 117.132812 645.550781 117.160156 645.628906 117.265625 C 648.34375 120.96875 651.078125 124.660156 653.742188 128.398438 C 653.808594 128.488281 653.835938 128.59375 653.835938 128.699219 L 653.835938 128.714844 C 653.777344 130.929688 654.050781 133.152344 654.660156 135.277344 C 655.265625 137.375 656.1875 139.496094 657.574219 141.042969 C 657.75 141.210938 657.933594 141.390625 658.097656 141.480469 C 658.195312 141.5625 658.21875 141.519531 658.269531 141.566406 C 658.375 141.578125 658.496094 141.597656 658.613281 141.59375 C 659.09375 141.609375 659.589844 141.527344 660.039062 141.351562 C 660.945312 141.007812 661.640625 140.289062 662.011719 139.367188 C 662.808594 137.519531 662.144531 135.25 661.621094 133.097656 C 661.042969 130.929688 660.328125 128.769531 659.710938 126.5625 C 659.394531 125.460938 659.128906 124.339844 658.929688 123.1875 C 658.742188 122.054688 658.527344 121.023438 658.179688 119.9375 C 656.816406 115.664062 654.992188 111.480469 653.078125 107.378906 L 653.074219 107.375 C 653.011719 107.234375 653.070312 107.070312 653.207031 107.007812 C 653.34375 106.945312 653.503906 107 653.570312 107.128906 C 655.671875 111.175781 657.710938 115.253906 659.183594 119.621094 C 659.5625 120.691406 659.839844 121.882812 660.046875 122.988281 C 660.257812 124.070312 660.558594 125.152344 660.867188 126.234375 C 661.488281 128.402344 662.21875 130.554688 662.832031 132.773438 C 662.921875 133.113281 663.003906 133.457031 663.089844 133.800781 C 664.050781 131.917969 665.042969 130.054688 666.054688 128.199219 C 666.355469 127.640625 666.65625 127.082031 666.972656 126.53125 C 667.292969 125.988281 667.53125 125.488281 667.703125 124.921875 C 668.050781 123.808594 668.113281 122.613281 667.875 121.480469 C 667.371094 119.039062 666.71875 116.582031 666.015625 114.171875 C 665.304688 111.761719 664.496094 109.375 663.398438 107.117188 C 663.335938 106.996094 663.382812 106.847656 663.507812 106.785156 C 663.617188 106.726562 663.757812 106.769531 663.824219 106.871094 C 665.246094 109.027344 666.222656 111.425781 667.070312 113.835938 C 667.914062 116.257812 668.558594 118.710938 669.148438 121.226562 Z M 677.042969 130.308594 L 679.746094 126.847656 C 680.195312 126.246094 680.636719 125.648438 681.023438 124.945312 C 681.117188 124.757812 681.214844 124.582031 681.292969 124.339844 C 681.332031 124.242188 681.371094 123.933594 681.347656 123.839844 C 681.335938 123.710938 681.324219 123.570312 681.296875 123.472656 C 681.207031 123.039062 681.074219 122.6875 680.9375 122.324219 C 679.746094 119.546875 678.285156 117.019531 676.746094 114.503906 C 675.15625 112.027344 673.617188 109.527344 671.53125 107.351562 C 671.441406 107.261719 671.296875 107.25 671.199219 107.332031 C 671.09375 107.417969 671.074219 107.570312 671.160156 107.679688 L 671.175781 107.699219 C 672.0625 108.800781 672.835938 110.058594 673.585938 111.300781 C 674.347656 112.539062 675.082031 113.796875 675.792969 115.070312 C 677.195312 117.605469 678.667969 120.167969 679.726562 122.800781 C 679.851562 123.117188 679.976562 123.453125 680.039062 123.734375 C 680.0625 123.816406 680.058594 123.859375 680.070312 123.914062 C 680.070312 124 680.078125 123.875 680.074219 123.953125 C 680.042969 124.0625 679.96875 124.210938 679.898438 124.351562 C 679.589844 124.933594 679.175781 125.53125 678.753906 126.105469 C 677.890625 127.238281 676.976562 128.417969 676.136719 129.628906 C 674.367188 132.003906 672.875 134.488281 671.046875 136.75 C 670.957031 136.855469 670.964844 137.015625 671.0625 137.117188 C 671.171875 137.226562 671.347656 137.226562 671.457031 137.117188 C 672.511719 136.074219 673.4375 134.925781 674.359375 133.777344 C 675.25 132.59375 676.136719 131.441406 677.042969 130.308594 Z M 658.550781 71.144531 C 658.710938 71.660156 659.261719 71.945312 659.777344 71.785156 L 660.371094 71.597656 C 660.886719 71.4375 661.171875 70.886719 661.011719 70.375 L 654.621094 50.050781 C 657.613281 49.949219 660.605469 49.804688 663.589844 49.636719 L 673.910156 48.960938 L 684.214844 48.105469 C 687.644531 47.789062 691.078125 47.457031 694.503906 47.042969 C 694.628906 47.027344 694.722656 46.917969 694.71875 46.789062 C 694.71875 46.652344 694.601562 46.546875 694.464844 46.550781 C 691.015625 46.640625 687.574219 46.816406 684.132812 47.003906 L 673.8125 47.664062 L 663.507812 48.503906 C 660.476562 48.78125 657.449219 49.074219 654.425781 49.421875 L 653.222656 45.59375 C 653.058594 45.078125 652.511719 44.792969 651.996094 44.953125 L 651.402344 45.140625 C 650.886719 45.304688 650.601562 45.851562 650.761719 46.367188 Z M 645.886719 221.144531 C 645.972656 221.261719 645.945312 221.429688 645.832031 221.519531 C 643.957031 222.988281 642.058594 224.425781 640.121094 225.820312 C 638.179688 227.203125 636.164062 228.503906 634.15625 229.769531 C 630.140625 232.320312 626.058594 234.757812 622.070312 237.320312 C 618.054688 239.828125 614.132812 242.484375 610.679688 245.664062 C 607.242188 248.855469 604.488281 252.730469 602.265625 256.910156 C 602.207031 257.03125 602.054688 257.082031 601.933594 257.019531 C 601.816406 256.957031 601.769531 256.8125 601.824219 256.691406 C 602.855469 254.539062 603.945312 252.402344 605.292969 250.40625 C 606.660156 248.429688 608.199219 246.5625 609.914062 244.867188 C 613.375 241.496094 617.375 238.800781 621.371094 236.222656 C 624.640625 234.179688 627.929688 232.191406 631.222656 230.210938 L 632.601562 222.472656 L 634.035156 214.171875 L 635.523438 205.878906 L 636.308594 201.738281 L 636.730469 199.667969 L 636.949219 198.632812 L 637.070312 198.117188 L 637.132812 197.855469 L 637.171875 197.71875 L 637.199219 197.628906 L 637.222656 197.570312 C 636.988281 197.542969 637.765625 197.316406 637.738281 197.597656 C 637.757812 197.65625 637.753906 197.683594 637.757812 197.726562 C 637.757812 197.789062 637.726562 197.839844 637.691406 197.886719 C 637.703125 197.882812 637.710938 197.878906 637.71875 197.875 L 637.703125 197.96875 L 637.671875 198.226562 L 637.609375 198.746094 L 637.476562 199.792969 L 637.222656 201.886719 L 636.644531 206.0625 C 636.246094 208.847656 635.773438 211.621094 635.316406 214.398438 C 634.796875 217.164062 634.292969 219.933594 633.6875 222.683594 C 633.164062 225.070312 632.582031 227.449219 631.902344 229.800781 C 632.453125 229.46875 633.007812 229.132812 633.5625 228.800781 C 637.660156 226.40625 641.601562 223.796875 645.5 221.074219 C 645.625 220.988281 645.796875 221.019531 645.886719 221.144531 Z M 637.203125 197.726562 C 637.207031 197.75 637.203125 197.753906 637.21875 197.789062 C 637.210938 197.84375 637.238281 197.871094 637.273438 197.894531 C 637.238281 197.847656 637.207031 197.792969 637.203125 197.726562 Z M 706.679688 95.507812 L 706.671875 95.515625 C 705.148438 96.527344 703.5 97.375 701.828125 98.164062 C 700.164062 98.964844 698.472656 99.722656 696.765625 100.441406 C 693.339844 101.875 689.964844 103.382812 686.390625 104.164062 C 682.847656 105.023438 679.152344 105.332031 675.566406 104.820312 C 673.796875 104.558594 672.039062 103.976562 670.328125 103.320312 C 668.609375 102.675781 666.925781 101.898438 665.277344 101.074219 L 665.265625 101.066406 C 665.136719 101.003906 664.980469 101.046875 664.90625 101.171875 C 664.828125 101.304688 664.871094 101.472656 665 101.550781 C 668.210938 103.476562 671.597656 105.164062 675.378906 105.941406 C 678.148438 106.425781 680.960938 106.367188 683.71875 105.976562 C 684.558594 106.265625 685.332031 106.742188 685.996094 107.351562 C 686.996094 108.25 687.859375 109.328125 688.566406 110.519531 C 690.015625 112.867188 691.144531 115.441406 692.117188 118.070312 C 693.085938 120.710938 694.300781 123.328125 694.472656 125.996094 C 694.574219 127.300781 694.273438 128.667969 693.15625 129.195312 C 692.589844 129.519531 692.101562 129.535156 691.601562 129.136719 C 691.261719 128.863281 690.972656 128.476562 690.726562 128.054688 C 690.894531 127.726562 691.046875 127.386719 691.15625 127.03125 C 691.476562 125.945312 691.59375 124.871094 691.398438 123.699219 C 691.210938 122.589844 690.769531 121.625 690.355469 120.652344 C 689.449219 118.753906 688.34375 116.980469 687.074219 115.335938 C 684.550781 112.066406 681.515625 109.042969 677.695312 107.300781 C 677.574219 107.25 677.425781 107.300781 677.367188 107.417969 C 677.308594 107.539062 677.359375 107.6875 677.480469 107.75 C 679.265625 108.683594 680.84375 109.972656 682.273438 111.390625 C 683.714844 112.796875 685.015625 114.351562 686.183594 115.992188 C 687.335938 117.640625 688.417969 119.351562 689.246094 121.164062 C 689.617188 122.070312 690.015625 123 690.15625 123.917969 C 690.300781 124.761719 690.191406 125.78125 689.914062 126.644531 C 689.414062 128.433594 687.871094 129.71875 686.253906 130.921875 L 685.019531 131.839844 C 684.546875 132.207031 684.183594 132.613281 683.84375 133.023438 C 683.160156 133.84375 682.589844 134.707031 682.023438 135.570312 C 680.898438 137.289062 679.835938 139.03125 678.613281 140.625 C 678.011719 141.421875 677.363281 142.195312 676.601562 142.773438 C 675.851562 143.367188 674.902344 143.578125 674.191406 142.921875 C 674.082031 142.820312 673.910156 142.824219 673.804688 142.933594 C 673.699219 143.042969 673.703125 143.21875 673.8125 143.324219 L 673.820312 143.332031 C 674.222656 143.71875 674.816406 144.015625 675.429688 143.96875 C 676.035156 143.933594 676.566406 143.679688 677.023438 143.382812 C 677.933594 142.769531 678.65625 141.996094 679.335938 141.203125 C 680.664062 139.59375 681.789062 137.867188 682.964844 136.207031 C 683.550781 135.378906 684.140625 134.550781 684.769531 133.800781 C 685.082031 133.425781 685.417969 133.074219 685.757812 132.816406 L 686.992188 131.914062 C 687.820312 131.300781 688.667969 130.671875 689.425781 129.878906 C 689.785156 129.511719 690.109375 129.097656 690.390625 128.652344 C 690.585938 129.015625 690.820312 129.363281 691.144531 129.671875 C 691.4375 129.949219 691.835938 130.183594 692.292969 130.230469 C 692.761719 130.292969 693.171875 130.132812 693.535156 129.992188 C 694.289062 129.679688 694.910156 129 695.203125 128.246094 C 695.507812 127.492188 695.582031 126.710938 695.578125 125.960938 C 695.570312 124.449219 695.1875 123.019531 694.757812 121.640625 C 694.289062 120.261719 693.828125 118.960938 693.335938 117.609375 C 692.289062 114.957031 691.148438 112.300781 689.515625 109.894531 C 688.710938 108.691406 687.738281 107.566406 686.582031 106.636719 C 686.136719 106.292969 685.636719 106 685.117188 105.75 C 685.644531 105.652344 686.171875 105.546875 686.691406 105.429688 C 690.386719 104.546875 693.84375 103.003906 697.21875 101.449219 C 700.578125 99.84375 703.980469 98.238281 706.96875 95.910156 C 707.070312 95.832031 707.09375 95.6875 707.023438 95.578125 C 706.949219 95.464844 706.792969 95.433594 706.679688 95.507812 Z M 637.722656 197.820312 L 637.71875 197.824219 C 637.722656 197.824219 637.722656 197.828125 637.726562 197.828125 C 637.730469 197.816406 637.730469 197.804688 637.726562 197.8125 Z M 637.726562 197.828125 C 637.726562 197.835938 637.722656 197.84375 637.722656 197.847656 L 637.71875 197.875 C 637.765625 197.855469 637.777344 197.835938 637.726562 197.828125 Z M 670.226562 81.816406 C 669.441406 82.3125 668.613281 82.722656 667.722656 83.015625 C 666.832031 83.3125 665.902344 83.503906 664.957031 83.660156 C 664.007812 83.808594 663.03125 83.894531 662.0625 83.953125 L 662.046875 83.953125 C 661.929688 83.957031 661.824219 84.039062 661.792969 84.160156 C 661.753906 84.308594 661.84375 84.460938 661.992188 84.5 C 663.003906 84.765625 664.027344 84.824219 665.0625 84.792969 C 666.097656 84.761719 667.128906 84.570312 668.136719 84.25 C 669.128906 83.898438 670.089844 83.394531 670.902344 82.695312 C 671.453125 82.222656 671.898438 81.652344 672.257812 81.039062 C 672.5 81.539062 672.753906 82.03125 673.054688 82.496094 C 673.46875 83.15625 673.921875 83.789062 674.464844 84.355469 C 674.535156 84.425781 674.636719 84.453125 674.734375 84.417969 C 674.867188 84.371094 674.933594 84.226562 674.886719 84.09375 C 674.625 83.367188 674.324219 82.679688 674.035156 81.988281 L 673.164062 79.921875 L 672.28125 77.863281 C 671.980469 77.179688 671.691406 76.484375 671.347656 75.796875 C 671.296875 75.699219 671.195312 75.632812 671.078125 75.640625 C 670.921875 75.648438 670.804688 75.78125 670.8125 75.9375 C 670.855469 76.722656 671.011719 77.484375 671.207031 78.234375 C 671.382812 78.9375 671.636719 79.617188 671.910156 80.285156 C 671.390625 80.867188 670.855469 81.40625 670.226562 81.816406 Z M 697.230469 55.691406 L 697.234375 55.6875 C 698.113281 55.15625 699.28125 54.859375 700.332031 54.523438 C 701.375 54.226562 702.132812 54.472656 702.242188 55.394531 C 702.378906 56.25 701.746094 57.183594 700.929688 57.960938 C 700.128906 58.769531 699.257812 59.511719 698.3125 60.183594 C 698.214844 60.25 698.179688 60.382812 698.230469 60.492188 C 698.292969 60.617188 698.441406 60.667969 698.5625 60.609375 C 699.636719 60.089844 700.652344 59.433594 701.570312 58.65625 C 702.027344 58.265625 702.492188 57.835938 702.867188 57.277344 C 703.242188 56.742188 703.511719 56 703.421875 55.257812 C 703.367188 54.542969 702.929688 53.714844 702.152344 53.375 C 701.390625 53.035156 700.644531 53.136719 700.019531 53.277344 C 699.414062 53.453125 698.828125 53.628906 698.246094 53.84375 C 699.238281 52.074219 700.601562 50.488281 702.28125 49.25 C 702.390625 49.171875 702.429688 49.023438 702.363281 48.898438 C 702.292969 48.761719 702.125 48.710938 701.988281 48.78125 C 699.507812 50.078125 697.453125 52.289062 696.339844 54.925781 C 696.265625 55.101562 696.273438 55.3125 696.382812 55.488281 C 696.558594 55.777344 696.9375 55.871094 697.230469 55.691406 Z M 598.640625 284.21875 C 589.105469 281.164062 579.324219 279.03125 569.519531 277.121094 C 559.703125 275.25 549.808594 273.785156 539.863281 272.722656 C 534.886719 272.234375 529.894531 271.84375 524.882812 271.738281 C 519.882812 271.625 514.824219 271.632812 509.847656 272.617188 C 504.875 273.539062 500.089844 275.492188 495.914062 278.339844 C 492.414062 280.796875 489.332031 283.878906 487.105469 287.539062 C 487.476562 285.570312 487.816406 283.597656 488.074219 281.609375 C 488.835938 275.5625 489.148438 269.390625 488.171875 263.332031 C 488.148438 263.203125 488.019531 263.105469 487.886719 263.128906 C 487.753906 263.152344 487.660156 263.277344 487.683594 263.414062 C 488.519531 269.410156 488.082031 275.507812 487.203125 281.484375 C 486.335938 287.480469 484.910156 293.382812 483.273438 299.21875 C 479.988281 310.894531 475.757812 322.296875 471.101562 333.507812 C 466.496094 344.742188 461.382812 355.769531 456.066406 366.695312 C 453.40625 372.152344 450.667969 377.578125 447.863281 382.96875 C 445.078125 388.371094 442.234375 393.742188 439.277344 399.046875 C 439.203125 399.179688 439.246094 399.347656 439.375 399.421875 C 439.507812 399.5 439.675781 399.457031 439.753906 399.324219 C 440.839844 397.46875 441.894531 395.59375 442.957031 393.726562 C 442.394531 396.351562 441.804688 398.972656 441.292969 401.609375 C 440.710938 404.492188 440.125 407.371094 439.589844 410.261719 C 438.46875 416.03125 437.441406 421.820312 436.421875 427.605469 L 436.417969 427.621094 C 436.363281 427.933594 436.570312 428.230469 436.878906 428.289062 L 444.097656 429.65625 C 446.503906 430.105469 448.917969 430.511719 451.332031 430.9375 C 451.457031 430.960938 451.585938 430.882812 451.613281 430.753906 C 451.644531 430.621094 451.5625 430.488281 451.429688 430.453125 C 449.046875 429.890625 446.671875 429.300781 444.285156 428.753906 L 437.679688 427.265625 C 438.753906 421.679688 439.820312 416.089844 440.796875 410.484375 C 441.328125 407.59375 441.804688 404.691406 442.289062 401.792969 C 442.792969 398.898438 443.203125 395.984375 443.660156 393.082031 C 443.679688 392.957031 443.601562 392.847656 443.488281 392.796875 C 448.234375 384.378906 452.757812 375.835938 457.085938 367.195312 C 462.476562 356.386719 467.550781 345.414062 472.199219 334.257812 C 475.398438 336.910156 478.667969 339.476562 482.003906 341.957031 C 485.53125 344.589844 489.144531 347.113281 492.773438 349.609375 C 496.433594 352.054688 500.140625 354.441406 503.917969 356.714844 C 507.695312 358.984375 511.566406 361.097656 515.507812 363.070312 C 515.625 363.125 515.769531 363.085938 515.832031 362.972656 C 515.902344 362.851562 515.859375 362.703125 515.742188 362.632812 C 513.851562 361.511719 511.945312 360.425781 510.089844 359.246094 C 508.207031 358.125 506.351562 356.945312 504.5 355.773438 C 500.808594 353.398438 497.113281 351.027344 493.5 348.53125 C 489.851562 346.09375 486.257812 343.566406 482.667969 341.035156 L 477.304688 337.210938 C 475.667969 336.054688 474.042969 334.878906 472.429688 333.691406 C 474.714844 328.167969 476.847656 322.582031 478.851562 316.945312 C 480.898438 311.210938 482.761719 305.402344 484.339844 299.511719 C 485.257812 296.078125 486.085938 292.621094 486.792969 289.132812 C 489.082031 285.058594 492.523438 281.640625 496.410156 279.070312 C 500.523438 276.367188 505.191406 274.53125 510.050781 273.703125 C 514.898438 272.839844 519.890625 272.808594 524.851562 272.960938 C 529.816406 273.09375 534.78125 273.507812 539.730469 274.015625 C 549.640625 275.015625 559.503906 276.492188 569.3125 278.238281 C 574.214844 279.128906 579.113281 280.054688 583.976562 281.140625 C 588.84375 282.199219 593.703125 283.320312 598.472656 284.746094 C 598.617188 284.789062 598.773438 284.710938 598.816406 284.566406 C 598.863281 284.421875 598.785156 284.265625 598.640625 284.21875 Z M 477.234375 292.015625 C 478.128906 290.589844 478.710938 289.058594 479.238281 287.503906 C 479.761719 285.949219 480.128906 284.351562 480.445312 282.75 C 480.75 281.144531 480.957031 279.523438 481.082031 277.898438 L 481.214844 275.460938 C 481.210938 274.644531 481.226562 273.832031 481.191406 273.019531 C 481.1875 272.902344 481.101562 272.800781 480.980469 272.785156 C 480.847656 272.761719 480.71875 272.855469 480.699219 272.992188 L 479.984375 277.773438 C 479.714844 279.355469 479.488281 280.941406 479.167969 282.507812 C 478.871094 284.078125 478.527344 285.636719 478.148438 287.1875 C 477.75 288.726562 477.308594 290.28125 476.753906 291.746094 L 476.742188 291.769531 C 476.699219 291.890625 476.742188 292.03125 476.855469 292.101562 C 476.984375 292.183594 477.15625 292.144531 477.234375 292.015625 Z M 312.378906 249.4375 C 312.113281 250.632812 311.820312 251.800781 311.289062 252.785156 C 310.984375 253.367188 310.589844 253.859375 310.105469 254.261719 C 309.609375 254.65625 308.976562 254.851562 308.277344 255.054688 L 308.25 255.0625 C 308.160156 255.089844 308.089844 255.164062 308.074219 255.265625 C 308.050781 255.398438 308.144531 255.527344 308.277344 255.550781 C 309.054688 255.675781 309.921875 255.613281 310.691406 255.199219 C 311.457031 254.796875 312.035156 254.117188 312.433594 253.402344 C 312.828125 252.671875 313.050781 251.894531 313.140625 251.113281 C 313.207031 250.550781 313.203125 249.996094 313.148438 249.4375 L 344.929688 249.363281 C 356.585938 249.3125 368.242188 249.210938 379.894531 249.070312 C 380.046875 249.070312 380.167969 248.949219 380.167969 248.796875 C 380.171875 248.644531 380.050781 248.519531 379.894531 248.519531 C 368.242188 248.375 356.585938 248.277344 344.929688 248.226562 L 309.960938 248.144531 L 274.996094 248.242188 C 263.339844 248.296875 251.683594 248.402344 240.027344 248.546875 C 239.894531 248.546875 239.785156 248.65625 239.785156 248.789062 C 239.78125 248.925781 239.890625 249.039062 240.027344 249.042969 C 251.683594 249.1875 263.339844 249.292969 274.996094 249.347656 L 309.960938 249.445312 Z M 421.363281 479.726562 C 420.238281 478.761719 418.855469 478.1875 417.464844 477.820312 C 414.667969 477.054688 411.777344 476.992188 408.941406 476.976562 C 406.09375 476.976562 403.273438 477.1875 400.496094 476.964844 C 397.707031 476.769531 394.957031 476.21875 392.222656 475.546875 C 389.492188 474.875 386.769531 474.105469 384.039062 473.367188 C 381.285156 472.648438 378.628906 471.855469 375.972656 470.886719 C 370.675781 468.964844 365.4375 466.816406 360.195312 464.691406 C 354.945312 462.582031 349.691406 460.46875 344.394531 458.453125 C 339.09375 456.449219 333.765625 454.496094 328.292969 452.9375 C 317.347656 449.871094 306.128906 447.941406 294.820312 447.019531 C 294.667969 447.007812 294.535156 447.117188 294.523438 447.265625 C 294.507812 447.417969 294.617188 447.554688 294.769531 447.570312 L 294.777344 447.570312 C 300.390625 448.128906 305.984375 449.007812 311.523438 450.082031 C 317.066406 451.152344 322.574219 452.417969 327.976562 454.027344 C 338.757812 457.308594 349.222656 461.664062 359.707031 465.898438 C 364.964844 468 370.210938 470.125 375.5625 472.039062 C 378.230469 473 381.003906 473.8125 383.730469 474.511719 C 386.460938 475.242188 389.195312 475.984375 391.96875 476.625 C 394.734375 477.265625 397.5625 477.792969 400.429688 477.957031 C 403.300781 478.148438 406.140625 477.902344 408.953125 477.855469 C 411.757812 477.808594 414.597656 477.808594 417.289062 478.484375 C 418.628906 478.804688 419.941406 479.320312 420.988281 480.183594 C 422.050781 481.027344 422.78125 482.21875 423.128906 483.546875 L 423.128906 483.558594 C 423.164062 483.6875 423.292969 483.765625 423.425781 483.734375 C 423.558594 483.703125 423.640625 483.570312 423.609375 483.4375 C 423.277344 482.011719 422.503906 480.671875 421.363281 479.726562 Z M 437.664062 562.042969 C 437.273438 560.742188 436.835938 559.457031 436.292969 558.210938 C 435.757812 556.964844 435.164062 555.746094 434.453125 554.589844 C 434.386719 554.480469 434.25 554.425781 434.125 554.46875 C 433.980469 554.519531 433.902344 554.675781 433.953125 554.820312 L 435.230469 558.613281 C 435.632812 559.878906 436.046875 561.136719 436.414062 562.410156 C 436.796875 563.675781 437.136719 564.957031 437.484375 566.238281 L 438.46875 570.121094 C 438.496094 570.230469 438.597656 570.308594 438.714844 570.308594 C 438.851562 570.304688 438.960938 570.191406 438.957031 570.054688 C 438.941406 568.695312 438.785156 567.347656 438.566406 566.007812 C 438.355469 564.667969 438.035156 563.347656 437.664062 562.042969 Z M 489.96875 549.792969 C 489.824219 549.734375 489.664062 549.804688 489.605469 549.945312 C 488.976562 551.496094 488.433594 553.074219 487.898438 554.652344 C 487.367188 556.234375 486.898438 557.832031 486.394531 559.417969 C 485.953125 561.027344 485.472656 562.621094 485.058594 564.238281 C 484.648438 565.851562 484.246094 567.472656 483.925781 569.113281 C 483.90625 569.230469 483.964844 569.347656 484.078125 569.394531 C 484.203125 569.445312 484.347656 569.382812 484.402344 569.257812 C 485.035156 567.707031 485.582031 566.132812 486.121094 564.554688 C 486.660156 562.976562 487.132812 561.378906 487.640625 559.792969 C 488.089844 558.1875 488.570312 556.589844 488.988281 554.976562 C 489.40625 553.363281 489.8125 551.746094 490.136719 550.105469 C 490.160156 549.976562 490.09375 549.84375 489.96875 549.792969 Z M 553.046875 423.484375 C 550.878906 421.4375 548.667969 419.449219 546.480469 417.425781 C 544.25 415.457031 542.046875 413.457031 539.796875 411.503906 C 537.542969 409.554688 535.285156 407.617188 532.96875 405.738281 C 532.859375 405.652344 532.699219 405.65625 532.597656 405.757812 C 532.492188 405.867188 532.492188 406.042969 532.597656 406.148438 C 534.703125 408.261719 536.863281 410.308594 539.035156 412.347656 C 541.203125 414.386719 543.417969 416.375 545.609375 418.394531 C 547.84375 420.363281 550.050781 422.359375 552.304688 424.304688 C 554.558594 426.25 556.820312 428.1875 559.140625 430.058594 C 559.238281 430.136719 559.382812 430.132812 559.472656 430.042969 C 559.570312 429.945312 559.570312 429.789062 559.472656 429.691406 C 557.371094 427.578125 555.214844 425.523438 553.046875 423.484375 Z M 719.871094 417.226562 C 719.339844 415.011719 718.84375 412.789062 718.285156 410.582031 C 717.726562 408.375 717.152344 406.171875 716.496094 403.984375 C 716.457031 403.855469 716.328125 403.769531 716.191406 403.789062 C 716.039062 403.8125 715.9375 403.953125 715.957031 404.105469 C 716.304688 406.359375 716.734375 408.597656 717.175781 410.832031 C 717.617188 413.066406 718.128906 415.285156 718.597656 417.515625 C 719.132812 419.726562 719.632812 421.949219 720.199219 424.15625 C 720.761719 426.363281 721.339844 428.566406 722 430.75 C 722.035156 430.867188 722.148438 430.945312 722.273438 430.925781 C 722.410156 430.90625 722.5 430.777344 722.480469 430.644531 C 722.140625 428.386719 721.714844 426.148438 721.277344 423.914062 C 720.839844 421.675781 720.335938 419.457031 719.871094 417.226562 Z M 593.460938 403.796875 C 591.203125 403.632812 588.949219 403.554688 586.695312 403.492188 C 584.4375 403.425781 582.183594 403.429688 579.925781 403.394531 C 577.671875 403.421875 575.417969 403.414062 573.160156 403.476562 C 570.90625 403.535156 568.652344 403.609375 566.394531 403.769531 C 566.261719 403.777344 566.148438 403.886719 566.140625 404.023438 C 566.128906 404.175781 566.242188 404.308594 566.394531 404.320312 C 568.652344 404.480469 570.90625 404.550781 573.160156 404.613281 C 575.417969 404.671875 577.671875 404.664062 579.925781 404.695312 C 582.183594 404.660156 584.4375 404.664062 586.695312 404.597656 C 588.949219 404.53125 591.203125 404.457031 593.460938 404.292969 C 593.582031 404.285156 593.679688 404.1875 593.6875 404.0625 C 593.699219 403.925781 593.597656 403.808594 593.460938 403.796875 Z M 593.460938 323.898438 C 591.203125 323.734375 588.949219 323.660156 586.695312 323.59375 C 584.4375 323.527344 582.183594 323.53125 579.925781 323.496094 C 577.671875 323.527344 575.417969 323.519531 573.160156 323.578125 C 570.90625 323.640625 568.652344 323.710938 566.394531 323.871094 C 566.261719 323.878906 566.148438 323.988281 566.140625 324.128906 C 566.128906 324.28125 566.242188 324.414062 566.394531 324.421875 C 568.652344 324.582031 570.90625 324.65625 573.160156 324.714844 C 575.417969 324.777344 577.671875 324.769531 579.925781 324.796875 C 582.183594 324.761719 584.4375 324.765625 586.695312 324.699219 C 588.949219 324.636719 591.203125 324.558594 593.460938 324.394531 C 593.582031 324.386719 593.679688 324.289062 593.6875 324.164062 C 593.699219 324.027344 593.597656 323.910156 593.460938 323.898438 Z M 751.789062 297.242188 C 751.652344 297.179688 751.488281 297.238281 751.421875 297.378906 C 750.371094 299.621094 749.398438 301.898438 748.4375 304.179688 C 747.480469 306.460938 746.582031 308.769531 745.652344 311.0625 C 744.78125 313.378906 743.875 315.679688 743.03125 318.007812 C 742.1875 320.335938 741.355469 322.667969 740.605469 325.03125 C 740.566406 325.148438 740.621094 325.277344 740.734375 325.328125 C 740.859375 325.386719 741.007812 325.335938 741.066406 325.210938 C 742.121094 322.96875 743.097656 320.691406 744.0625 318.410156 C 745.027344 316.132812 745.925781 313.828125 746.863281 311.535156 C 747.738281 309.222656 748.648438 306.921875 749.496094 304.59375 C 750.34375 302.269531 751.179688 299.941406 751.9375 297.578125 C 751.976562 297.449219 751.917969 297.304688 751.789062 297.242188 Z M 646.285156 150.914062 L 643.558594 149.855469 C 642.667969 149.484375 641.777344 149.125 640.90625 148.714844 C 640.027344 148.324219 639.171875 147.890625 638.308594 147.457031 C 637.449219 147.019531 636.609375 146.546875 635.734375 146.085938 C 635.628906 146.035156 635.5 146.046875 635.410156 146.132812 C 635.296875 146.242188 635.296875 146.417969 635.402344 146.527344 C 636.101562 147.253906 636.898438 147.875 637.730469 148.4375 C 638.5625 149.007812 639.457031 149.480469 640.367188 149.902344 C 641.289062 150.304688 642.234375 150.660156 643.210938 150.90625 C 644.183594 151.160156 645.175781 151.347656 646.179688 151.398438 C 646.285156 151.402344 646.386719 151.34375 646.425781 151.238281 C 646.476562 151.109375 646.414062 150.964844 646.285156 150.914062 Z M 676.300781 34.640625 C 676.894531 36.09375 677.625 37.496094 678.539062 38.765625 C 678.605469 38.859375 678.730469 38.894531 678.839844 38.847656 C 678.964844 38.792969 679.023438 38.644531 678.96875 38.519531 C 678.355469 37.113281 677.792969 35.707031 677.34375 34.265625 C 676.898438 32.820312 676.523438 31.363281 676.265625 29.878906 C 675.992188 28.402344 675.839844 26.902344 675.753906 25.394531 C 675.679688 23.886719 675.714844 22.371094 675.804688 20.84375 C 675.8125 20.714844 675.726562 20.59375 675.597656 20.558594 C 675.449219 20.519531 675.296875 20.609375 675.257812 20.757812 C 674.851562 22.269531 674.660156 23.835938 674.621094 25.40625 C 674.570312 26.980469 674.710938 28.558594 674.984375 30.109375 C 675.277344 31.660156 675.699219 33.1875 676.300781 34.640625 Z M 249.691406 210.417969 L 244.707031 182.378906 C 244.640625 182.027344 244.875 181.691406 245.226562 181.628906 C 245.265625 181.621094 245.308594 181.617188 245.347656 181.617188 L 263.632812 181.777344 L 263.640625 181.777344 C 263.882812 181.777344 264.082031 181.957031 264.117188 182.1875 L 268.582031 210.507812 L 268.585938 210.527344 L 250.109375 210.773438 C 249.902344 210.773438 249.726562 210.625 249.691406 210.429688 Z M 263.222656 182.765625 L 246.109375 182.914062 L 250.46875 209.929688 L 268.183594 210.171875 L 268.199219 210.171875 Z M 322.632812 209.289062 L 317.644531 181.246094 C 317.582031 180.894531 317.816406 180.558594 318.167969 180.496094 C 318.207031 180.488281 318.25 180.488281 318.289062 180.488281 L 336.570312 180.644531 L 336.582031 180.644531 C 336.824219 180.648438 337.023438 180.824219 337.058594 181.054688 L 341.523438 209.378906 L 341.527344 209.394531 L 323.046875 209.640625 C 322.839844 209.644531 322.667969 209.496094 322.632812 209.296875 Z M 336.160156 181.632812 L 319.050781 181.78125 L 323.410156 208.800781 L 341.121094 209.039062 L 341.140625 209.039062 Z M 336.160156 181.632812 " fill-opacity="1" fill-rule="nonzero"/><g clip-path="url(#9d2409c661)"><path fill="#c97061" d="M 304.835938 487.164062 L 304.917969 514.59375 L 304.820312 542.019531 C 304.765625 551.164062 304.660156 560.304688 304.515625 569.449219 C 304.511719 569.585938 304.398438 569.695312 304.261719 569.691406 C 304.128906 569.691406 304.019531 569.582031 304.019531 569.449219 C 303.875 560.304688 303.769531 551.164062 303.714844 542.019531 L 303.617188 514.59375 L 303.699219 487.164062 C 303.75 478.019531 303.847656 468.878906 303.992188 459.734375 C 303.992188 459.582031 304.117188 459.460938 304.269531 459.464844 C 304.421875 459.464844 304.539062 459.585938 304.542969 459.734375 C 304.683594 468.878906 304.785156 478.019531 304.835938 487.164062 Z M 350.898438 475.8125 C 350.894531 475.664062 350.777344 475.546875 350.628906 475.542969 C 350.476562 475.539062 350.347656 475.660156 350.347656 475.8125 C 350.207031 483.6875 350.105469 491.5625 350.054688 499.441406 L 349.972656 523.066406 L 350.070312 546.691406 C 350.125 554.566406 350.230469 562.441406 350.375 570.316406 C 350.378906 570.449219 350.484375 570.558594 350.617188 570.558594 C 350.753906 570.5625 350.867188 570.453125 350.871094 570.316406 C 351.015625 562.441406 351.121094 554.566406 351.175781 546.691406 L 351.273438 523.066406 L 351.191406 499.441406 C 351.140625 491.5625 351.039062 483.6875 350.898438 475.8125 Z M 441.691406 255.082031 C 441.5625 255 441.390625 255.039062 441.308594 255.167969 C 439.671875 257.765625 438.109375 260.40625 436.554688 263.050781 L 432.792969 269.625 L 403.382812 269.441406 L 372.222656 269.367188 L 362.382812 269.347656 C 362.503906 268.308594 362.578125 267.273438 362.632812 266.238281 C 362.707031 265.023438 362.71875 263.808594 362.730469 262.59375 C 362.726562 261.378906 362.71875 260.164062 362.648438 258.945312 C 362.589844 257.730469 362.515625 256.515625 362.359375 255.300781 C 362.339844 255.179688 362.246094 255.078125 362.117188 255.0625 C 361.964844 255.042969 361.824219 255.148438 361.804688 255.300781 C 361.644531 256.515625 361.574219 257.730469 361.511719 258.945312 C 361.445312 260.164062 361.4375 261.378906 361.429688 262.59375 C 361.441406 263.808594 361.453125 265.023438 361.527344 266.238281 C 361.582031 267.273438 361.660156 268.308594 361.777344 269.347656 L 309.898438 269.230469 L 247.574219 269.355469 L 216.414062 269.417969 L 185.25 269.605469 C 185.101562 269.605469 184.976562 269.730469 184.976562 269.878906 C 184.976562 270.03125 185.097656 270.15625 185.25 270.15625 L 205.402344 270.277344 C 205.273438 272.679688 205.199219 275.082031 205.148438 277.488281 C 205.109375 278.757812 205.082031 280.011719 205.089844 281.296875 C 205.101562 282.6875 205.546875 284.089844 206.386719 285.214844 C 206.972656 286.035156 207.777344 286.675781 208.671875 287.132812 L 208.488281 322.050781 L 208.421875 357.515625 L 208.300781 428.449219 L 208.4375 499.382812 L 208.507812 534.851562 L 208.703125 570.316406 C 208.703125 570.453125 208.8125 570.5625 208.949219 570.5625 C 209.085938 570.5625 209.199219 570.453125 209.199219 570.316406 L 209.390625 534.851562 L 209.464844 499.382812 L 209.601562 428.449219 L 209.476562 357.515625 L 209.414062 322.050781 L 209.230469 287.378906 C 209.410156 287.449219 209.582031 287.53125 209.765625 287.589844 C 210.433594 287.789062 211.136719 287.875 211.824219 287.875 L 213.726562 287.84375 C 216.261719 287.773438 218.796875 287.699219 221.332031 287.527344 C 221.453125 287.519531 221.554688 287.421875 221.5625 287.296875 C 221.574219 287.160156 221.46875 287.042969 221.332031 287.03125 C 218.796875 286.859375 216.261719 286.785156 213.726562 286.714844 L 211.824219 286.679688 C 211.238281 286.664062 210.679688 286.582031 210.132812 286.410156 C 209.054688 286.050781 208.101562 285.351562 207.417969 284.445312 C 206.722656 283.546875 206.34375 282.421875 206.308594 281.28125 C 206.300781 280.03125 206.285156 278.75 206.242188 277.488281 C 206.191406 275.085938 206.117188 272.683594 205.988281 270.28125 L 216.414062 270.34375 L 247.574219 270.410156 L 309.898438 270.53125 L 329.808594 270.488281 C 329.691406 271.734375 329.621094 272.984375 329.566406 274.230469 C 329.5 275.679688 329.492188 277.128906 329.484375 278.582031 C 329.496094 280.03125 329.507812 281.480469 329.582031 282.929688 C 329.648438 284.378906 329.726562 285.828125 329.886719 287.277344 C 329.902344 287.390625 329.992188 287.484375 330.109375 287.5 C 330.246094 287.515625 330.367188 287.414062 330.382812 287.277344 C 330.546875 285.828125 330.625 284.378906 330.6875 282.929688 C 330.761719 281.480469 330.773438 280.03125 330.785156 278.582031 C 330.78125 277.128906 330.773438 275.679688 330.703125 274.230469 C 330.652344 272.984375 330.578125 271.734375 330.464844 270.488281 L 350.339844 270.441406 C 350.203125 283.855469 350.105469 297.269531 350.054688 310.683594 L 349.972656 351.488281 L 350.070312 392.292969 C 350.125 405.894531 350.230469 419.496094 350.375 433.09375 C 350.375 433.230469 350.484375 433.339844 350.621094 433.339844 C 350.757812 433.34375 350.867188 433.230469 350.871094 433.09375 C 351.015625 419.496094 351.121094 405.894531 351.175781 392.292969 L 351.273438 351.488281 L 351.191406 310.683594 C 351.140625 297.269531 351.042969 283.855469 350.902344 270.441406 L 372.222656 270.394531 L 403.382812 270.324219 L 432.496094 270.140625 L 431.984375 271.039062 L 427.570312 279.113281 C 426.128906 281.820312 424.695312 284.535156 423.339844 287.289062 C 423.285156 287.402344 423.320312 287.542969 423.429688 287.609375 C 423.542969 287.683594 423.695312 287.648438 423.769531 287.53125 C 425.414062 284.9375 426.980469 282.296875 428.535156 279.65625 L 433.121094 271.675781 L 433.964844 270.132812 L 434.546875 270.128906 C 434.679688 270.128906 434.792969 270.019531 434.792969 269.882812 C 434.792969 269.746094 434.683594 269.636719 434.546875 269.632812 L 434.242188 269.632812 L 437.546875 263.605469 C 438.992188 260.902344 440.429688 258.191406 441.792969 255.4375 C 441.851562 255.3125 441.8125 255.15625 441.691406 255.082031 Z M 317.34375 287.03125 C 315.171875 286.867188 312.996094 286.789062 310.824219 286.726562 C 308.652344 286.660156 306.480469 286.664062 304.304688 286.628906 C 302.132812 286.660156 299.960938 286.652344 297.789062 286.710938 C 295.617188 286.769531 293.441406 286.84375 291.269531 287.003906 C 291.136719 287.011719 291.023438 287.121094 291.015625 287.257812 C 291.003906 287.410156 291.117188 287.542969 291.269531 287.554688 C 293.441406 287.714844 295.617188 287.785156 297.789062 287.847656 C 299.855469 287.90625 301.917969 287.902344 303.984375 287.925781 C 303.847656 300.269531 303.746094 312.613281 303.699219 324.957031 L 303.617188 362.5 L 303.714844 400.042969 C 303.769531 412.558594 303.875 425.074219 304.019531 437.589844 C 304.019531 437.722656 304.128906 437.832031 304.265625 437.832031 C 304.398438 437.835938 304.511719 437.726562 304.515625 437.589844 C 304.660156 425.074219 304.765625 412.558594 304.820312 400.042969 L 304.917969 362.5 L 304.835938 324.957031 C 304.785156 312.613281 304.6875 300.269531 304.546875 287.925781 C 306.640625 287.894531 308.734375 287.894531 310.824219 287.832031 C 312.996094 287.765625 315.171875 287.691406 317.34375 287.527344 C 317.464844 287.515625 317.5625 287.421875 317.570312 287.296875 C 317.582031 287.160156 317.480469 287.042969 317.34375 287.03125 Z M 317.34375 287.03125 " fill-opacity="1" fill-rule="nonzero"/></g></svg>