<svg xmlns="http://www.w3.org/2000/svg" xmlns:xlink="http://www.w3.org/1999/xlink" width="1366" zoomAndPan="magnify" viewBox="0 0 1024.5 576" height="768" preserveAspectRatio="xMidYMid meet" version="1.0"><defs><filter x="0%" y="0%" width="100%" height="100%" id="055b8a9e2b"><feColorMatrix values="0 0 0 0 1 0 0 0 0 1 0 0 0 0 1 0 0 0 1 0" color-interpolation-filters="sRGB"/></filter><clipPath id="aaae9471f0"><path d="M 594 545 L 717 545 L 717 575.859375 L 594 575.859375 Z M 594 545 " clip-rule="nonzero"/></clipPath><mask id="6d453912aa"><g filter="url(#055b8a9e2b)"><rect x="-102.45" width="1229.4" fill="#000000" y="-57.6" height="691.2" fill-opacity="0.298"/></g></mask><clipPath id="ed785a0bce"><path d="M 0.667969 2 L 814 2 L 814 321 L 0.667969 321 Z M 0.667969 2 " clip-rule="nonzero"/></clipPath><clipPath id="2ae7116fda"><rect x="0" width="816" y="0" height="322"/></clipPath></defs><path fill="#ccb4af" d="M 767.898438 325.601562 L 96.703125 325.601562 L 81.828125 388.523438 L 94.796875 388.523438 L 112.148438 349.628906 L 752.453125 349.628906 L 769.804688 388.523438 L 782.769531 388.523438 Z M 767.898438 325.601562 " fill-opacity="1" fill-rule="nonzero"/><path fill="#c97061" d="M 809.65625 169.4375 L 799.742188 157.042969 L 758.363281 100.222656 C 754.167969 94.503906 748.066406 91.261719 741.390625 91.261719 L 707.261719 91.261719 C 707.261719 89.164062 705.734375 87.636719 704.210938 87.636719 C 698.488281 87.636719 684.570312 87.636719 678.660156 87.636719 C 654.25 87.636719 626.222656 87.636719 601.816406 87.636719 C 536.03125 87.636719 468.910156 87.636719 403.125 87.636719 C 359.078125 87.636719 312.933594 87.636719 268.695312 87.636719 C 228.84375 87.636719 186.703125 87.636719 146.851562 87.636719 C 145.136719 87.636719 143.800781 89.355469 143.800781 91.261719 L 123.589844 91.261719 C 116.914062 91.261719 110.8125 94.503906 106.617188 100.222656 L 64.859375 156.855469 L 54.941406 169.246094 C 53.226562 171.34375 52.273438 174.207031 52.464844 177.066406 L 57.039062 325.03125 C 57.230469 330.367188 61.234375 334.753906 66.191406 334.753906 C 73.628906 334.753906 85.070312 334.945312 96.890625 334.945312 L 96.890625 335.136719 L 768.085938 335.136719 L 768.085938 334.945312 C 779.910156 334.945312 791.351562 334.753906 798.789062 334.753906 C 803.746094 334.753906 807.75 330.367188 807.941406 325.03125 L 812.515625 177.066406 C 812.324219 174.394531 811.371094 171.535156 809.65625 169.4375 Z M 809.65625 169.4375 " fill-opacity="1" fill-rule="nonzero"/><path fill="#ccb4af" d="M 667.789062 50.074219 L 702.875 81.347656 C 714.125 91.453125 727.28125 98.507812 741.773438 102.320312 L 805.269531 119.289062 C 808.511719 120.246094 808.320312 125.582031 804.890625 128.441406 C 789.445312 141.980469 757.980469 169.820312 751.878906 180.6875 C 744.0625 194.609375 734.148438 204.140625 729.761719 211.003906 C 729.761719 211.003906 724.421875 235.414062 720.035156 243.800781 L 720.417969 250.667969 C 720.417969 252.382812 718.890625 253.71875 717.367188 253.335938 C 712.410156 251.808594 701.921875 248.1875 689.527344 239.988281 C 673.699219 229.5 593.234375 193.464844 577.597656 186.410156 C 576.453125 185.835938 576.074219 183.929688 577.214844 182.785156 C 579.886719 180.117188 584.082031 176.113281 587.132812 176.304688 C 591.519531 176.492188 591.707031 178.210938 593.425781 174.394531 C 594.949219 170.582031 596.855469 166.960938 602.957031 161.8125 C 609.25 156.664062 634.039062 118.148438 647.003906 92.40625 C 656.730469 73.148438 661.878906 58.847656 663.976562 51.980469 C 664.738281 50.074219 666.644531 48.929688 667.789062 50.074219 Z M 667.789062 50.074219 " fill-opacity="1" fill-rule="nonzero"/><path fill="#55413a" d="M 102.421875 152.277344 C 101.277344 150.179688 101.46875 147.511719 102.804688 145.605469 C 108.714844 136.640625 128.164062 112.046875 164.394531 108.804688 C 208.820312 104.800781 219.882812 128.632812 220.453125 137.40625 C 221.027344 146.175781 225.410156 160.285156 225.410156 160.285156 L 255.730469 173.0625 C 263.738281 176.492188 269.269531 183.738281 270.410156 192.320312 C 273.652344 217.296875 256.875 232.363281 231.703125 232.363281 C 209.777344 232.363281 185.367188 239.035156 182.507812 237.507812 C 176.789062 234.269531 166.679688 223.210938 164.203125 214.820312 C 164.585938 214.820312 117.867188 183.167969 102.421875 152.277344 Z M 102.421875 152.277344 " fill-opacity="1" fill-rule="nonzero"/><path fill="#fbd8b7" d="M 231.894531 81.15625 C 231.894531 81.15625 186.894531 92.023438 170.304688 95.265625 C 153.714844 98.507812 144.371094 101.9375 134.265625 97.746094 C 124.160156 93.738281 118.25 91.644531 115.960938 86.496094 C 113.863281 81.347656 97.65625 56.367188 97.65625 56.367188 L 88.691406 76.390625 L 103.949219 115.859375 C 103.949219 115.859375 171.449219 107.851562 194.332031 101.558594 C 217.210938 95.074219 231.894531 81.15625 231.894531 81.15625 Z M 231.894531 81.15625 " fill-opacity="1" fill-rule="nonzero"/><path fill="#55413a" d="M 101.46875 62.089844 C 101.46875 62.089844 91.363281 44.355469 85.070312 37.492188 C 78.777344 30.625 71.914062 27.957031 68.101562 32.535156 C 65.238281 35.964844 75.34375 63.042969 82.78125 79.628906 C 90.21875 96.21875 98.800781 117.003906 98.800781 117.003906 L 106.425781 114.90625 L 92.507812 75.816406 C 92.125 74.671875 92.316406 73.339844 93.078125 72.382812 Z M 101.46875 62.089844 " fill-opacity="1" fill-rule="nonzero"/><path fill="#fbd8b7" d="M 225.03125 88.019531 C 225.03125 88.019531 185.558594 99.460938 157.71875 103.65625 C 129.691406 107.851562 128.355469 113 111.765625 111.089844 C 95.175781 109.183594 62.570312 99.84375 62.570312 99.84375 C 62.570312 99.84375 59.328125 119.671875 60.855469 125.582031 C 62.378906 131.683594 73.628906 134.542969 88.503906 136.832031 C 103.375 139.121094 98.609375 141.789062 111.765625 138.929688 C 124.921875 136.070312 130.644531 132.636719 150.09375 132.828125 C 169.542969 133.019531 198.335938 140.074219 218.929688 136.640625 Z M 225.03125 88.019531 " fill-opacity="1" fill-rule="nonzero"/><path fill="#55413a" d="M 121.492188 136.453125 C 121.492188 136.453125 110.8125 136.832031 105.664062 138.359375 C 100.515625 139.882812 77.441406 133.402344 72.675781 131.683594 C 67.910156 129.96875 64.285156 127.300781 64.09375 125.390625 C 63.90625 123.675781 63.523438 105.179688 63.523438 100.984375 C 63.523438 100.414062 63.332031 99.84375 62.761719 99.460938 C 61.425781 98.507812 60.089844 96.980469 52.273438 96.410156 C 41.59375 95.457031 38.164062 96.792969 37.210938 99.460938 C 36.257812 102.128906 34.539062 108.039062 44.265625 119.671875 C 53.988281 131.304688 58.945312 136.640625 69.054688 139.503906 C 79.160156 142.363281 80.304688 137.785156 89.265625 139.503906 C 98.035156 141.21875 102.421875 143.695312 106.808594 143.125 C 111.195312 142.554688 121.492188 136.453125 121.492188 136.453125 Z M 121.492188 136.453125 " fill-opacity="1" fill-rule="nonzero"/><path fill="#ccb4af" d="M 492.554688 144.652344 C 492.554688 144.652344 413.039062 111.664062 356.789062 103.082031 C 356.789062 103.082031 320.5625 70.476562 298.441406 57.703125 C 295.582031 55.988281 292.148438 55.796875 289.097656 57.128906 L 230.75 81.535156 C 223.3125 84.585938 217.785156 90.878906 215.878906 98.699219 C 214.351562 104.988281 213.207031 113.378906 214.160156 123.484375 C 216.640625 146.9375 221.597656 148.65625 221.40625 154.945312 C 221.214844 161.238281 217.402344 162.957031 218.546875 171.34375 C 219.5 179.734375 225.03125 204.714844 226.175781 217.488281 C 226.746094 224.734375 226.9375 230.835938 226.9375 234.648438 C 226.9375 237.320312 229.035156 239.417969 231.703125 239.605469 C 238.757812 239.988281 252.871094 240.179688 270.222656 239.417969 C 295.007812 238.082031 316.367188 238.273438 325.898438 237.699219 C 335.433594 237.128906 344.394531 232.171875 344.394531 232.171875 C 344.394531 232.171875 452.894531 244.183594 475.773438 226.640625 Z M 492.554688 144.652344 " fill-opacity="1" fill-rule="nonzero"/><path fill="#27392e" d="M 638.234375 82.492188 C 638.234375 82.492188 627.367188 84.015625 621.265625 96.601562 C 621.265625 96.601562 596.855469 94.121094 585.796875 117.003906 L 625.457031 125.582031 L 648.914062 117.382812 L 648.914062 98.886719 Z M 638.234375 82.492188 " fill-opacity="1" fill-rule="nonzero"/><path fill="#fbd8b7" d="M 716.222656 65.328125 C 714.316406 61.707031 709.738281 56.75 705.164062 52.746094 C 704.78125 50.074219 704.589844 48.550781 704.589844 48.550781 C 704.589844 48.550781 698.679688 44.355469 691.433594 43.210938 C 676.5625 35.585938 670.648438 40.351562 663.023438 48.929688 C 657.300781 55.414062 655.585938 70.476562 642.621094 58.65625 C 642.621094 58.65625 639.570312 61.707031 639.570312 67.425781 C 639.570312 67.425781 635.566406 73.148438 636.710938 75.433594 C 636.710938 75.433594 630.226562 85.730469 631.179688 91.832031 C 632.324219 98.507812 640.523438 102.703125 645.671875 105.5625 C 645.671875 105.5625 645.671875 105.5625 645.863281 105.5625 C 646.242188 105.753906 646.433594 105.945312 646.816406 105.945312 L 645.480469 108.039062 C 645.480469 108.039062 635.753906 120.246094 612.492188 132.257812 L 612.492188 138.167969 L 651.582031 146.367188 C 651.582031 146.367188 694.105469 124.628906 702.875 101.9375 C 709.359375 99.84375 714.886719 94.882812 718.128906 90.308594 C 724.230469 81.535156 720.417969 73.527344 716.222656 65.328125 Z M 716.222656 65.328125 " fill-opacity="1" fill-rule="nonzero"/><path fill="#55413a" d="M 631.5625 120.433594 C 631.5625 120.433594 612.300781 116.050781 606.199219 115.859375 C 599.335938 115.667969 587.703125 117.382812 577.40625 117.382812 C 568.636719 117.382812 544.417969 118.335938 513.53125 145.792969 C 513.53125 145.792969 479.589844 132.828125 465.859375 132.636719 L 458.613281 150.371094 C 447.554688 177.066406 449.269531 207.191406 463.191406 232.550781 L 633.277344 174.96875 L 656.160156 141.21875 C 656.160156 141.21875 636.328125 142.554688 614.78125 133.210938 Z M 631.5625 120.433594 " fill-opacity="1" fill-rule="nonzero"/><path fill="#fbd8b7" d="M 436.304688 129.96875 C 437.066406 136.070312 446.410156 146.175781 450.984375 150.753906 C 452.703125 152.46875 453.65625 154.566406 454.035156 157.042969 C 456.132812 172.488281 456.707031 216.34375 470.054688 236.746094 C 476.917969 247.234375 494.84375 245.519531 528.019531 235.414062 C 561.007812 225.304688 581.601562 217.109375 581.601562 217.109375 L 561.390625 182.59375 L 501.515625 203.378906 C 501.515625 203.378906 492.171875 195.75 486.261719 179.542969 C 482.640625 169.628906 480.730469 160.859375 479.589844 155.519531 C 478.824219 151.894531 479.207031 148.082031 480.730469 144.652344 C 481.304688 143.125 482.066406 141.789062 482.828125 140.835938 C 482.828125 140.835938 484.164062 133.589844 483.402344 130.730469 C 482.640625 127.871094 476.726562 128.253906 476.726562 128.253906 C 476.726562 128.253906 472.152344 116.8125 468.339844 115.667969 C 464.523438 114.523438 462.425781 117.382812 462.425781 117.382812 C 462.425781 117.382812 458.230469 113 454.992188 113.1875 C 451.75 113.570312 450.796875 115.667969 450.796875 115.667969 C 450.796875 115.667969 445.074219 112.425781 442.785156 113.1875 C 440.5 114.140625 439.164062 115.667969 439.164062 115.667969 C 439.164062 115.667969 435.542969 113.1875 432.109375 113.953125 C 428.675781 114.714844 423.71875 118.910156 424.289062 120.816406 C 424.863281 122.722656 426.386719 124.25 431.726562 122.152344 Z M 436.304688 129.96875 " fill-opacity="1" fill-rule="nonzero"/><path fill="#27392e" d="M 663.785156 47.976562 C 689.527344 8.890625 745.398438 76.960938 733.574219 107.085938 C 729.761719 115.859375 715.269531 162.191406 641.285156 178.210938 C 638.425781 163.910156 645.097656 141.21875 657.300781 134.542969 C 652.535156 113.378906 675.796875 110.328125 688.574219 105.945312 C 692.195312 102.894531 692.578125 101.367188 695.4375 100.03125 C 698.296875 97.554688 694.105469 92.785156 694.675781 88.78125 C 693.152344 83.632812 684.761719 94.882812 683.234375 92.976562 C 683.808594 88.402344 690.480469 82.109375 692.386719 77.152344 C 692.769531 72.003906 694.484375 59.992188 702.875 54.652344 C 694.867188 47.214844 680.183594 35.203125 663.785156 47.976562 Z M 663.785156 47.976562 " fill-opacity="1" fill-rule="nonzero"/><path fill="#27392e" d="M 667.082031 65.097656 C 667.25 65.289062 667.335938 65.53125 667.347656 65.828125 C 667.363281 66.128906 667.296875 66.453125 667.15625 66.8125 C 667.015625 67.167969 666.808594 67.527344 666.535156 67.890625 C 666.261719 68.253906 665.941406 68.589844 665.578125 68.902344 C 665.210938 69.214844 664.832031 69.480469 664.429688 69.695312 C 664.03125 69.914062 663.644531 70.0625 663.269531 70.148438 C 662.894531 70.234375 662.5625 70.25 662.269531 70.191406 C 661.980469 70.132812 661.75 70.007812 661.585938 69.816406 C 661.421875 69.625 661.332031 69.378906 661.320312 69.082031 C 661.308594 68.785156 661.371094 68.460938 661.511719 68.101562 C 661.652344 67.746094 661.863281 67.386719 662.136719 67.023438 C 662.410156 66.660156 662.726562 66.324219 663.09375 66.011719 C 663.457031 65.695312 663.839844 65.433594 664.238281 65.21875 C 664.640625 65 665.027344 64.851562 665.398438 64.765625 C 665.773438 64.679688 666.105469 64.664062 666.398438 64.722656 C 666.691406 64.78125 666.917969 64.90625 667.082031 65.097656 Z M 667.082031 65.097656 " fill-opacity="1" fill-rule="nonzero"/><path fill="#55413a" d="M 651.390625 170.011719 C 651.582031 163.527344 647.386719 157.808594 641.285156 155.710938 C 634.800781 153.613281 613.445312 152.085938 599.90625 157.425781 C 580.078125 165.242188 560.816406 181.261719 560.816406 181.261719 L 581.601562 217.296875 C 581.601562 217.296875 626.792969 202.617188 640.523438 191.175781 C 653.296875 180.308594 651.199219 173.824219 651.390625 170.011719 Z M 651.390625 170.011719 " fill-opacity="1" fill-rule="nonzero"/><path fill="#fbd8b7" d="M 494.269531 131.492188 C 494.269531 131.492188 499.609375 125.964844 505.519531 129.96875 C 509.335938 125.964844 512.386719 129.585938 512.386719 129.585938 C 512.386719 129.585938 518.679688 125.011719 525.160156 145.605469 C 528.785156 157.042969 522.109375 157.042969 522.109375 157.042969 C 522.109375 157.042969 521.15625 162.382812 519.25 162.765625 C 515.625 163.71875 510.097656 158.1875 510.480469 153.421875 C 509.335938 166.195312 501.515625 157.042969 498.273438 150.179688 C 499.417969 153.804688 498.273438 168.105469 491.792969 157.617188 C 489.121094 152.660156 486.835938 142.933594 486.261719 137.40625 C 485.5 130.730469 491.984375 128.632812 494.269531 131.492188 Z M 494.269531 131.492188 " fill-opacity="1" fill-rule="nonzero"/><path fill="#fbd8b7" d="M 633.277344 410.070312 L 629.464844 428.949219 C 628.699219 433.144531 624.886719 436.003906 620.691406 435.621094 C 610.777344 434.859375 592.851562 433.332031 583.320312 430.855469 C 583.320312 430.855469 587.703125 439.816406 585.414062 448.777344 C 585.414062 448.777344 616.117188 463.078125 648.53125 463.269531 L 652.34375 410.644531 Z M 633.277344 410.070312 " fill-opacity="1" fill-rule="nonzero"/><path fill="#55413a" d="M 592.472656 449.160156 C 591.707031 448.777344 591.136719 448.015625 591.136719 447.253906 C 590.945312 444.394531 590.5625 438.101562 588.46875 433.523438 C 587.703125 432.191406 586.558594 431.046875 585.035156 430.472656 C 581.410156 429.140625 572.066406 427.613281 548.804688 428.949219 C 546.136719 429.140625 544.800781 432.570312 546.707031 434.667969 C 553.953125 443.058594 571.6875 460.21875 599.527344 467.273438 C 637.089844 476.617188 642.621094 476.234375 642.621094 476.234375 C 642.621094 476.234375 644.527344 467.847656 644.527344 460.792969 C 644.527344 460.980469 611.15625 456.40625 592.472656 449.160156 Z M 592.472656 449.160156 " fill-opacity="1" fill-rule="nonzero"/><path fill="#fbd8b7" d="M 713.933594 495.492188 L 715.269531 555.558594 L 651.011719 567.378906 C 651.011719 567.378906 644.90625 549.074219 641.09375 545.640625 C 641.09375 545.640625 662.261719 542.019531 672.746094 537.253906 C 683.234375 532.484375 683.808594 528.480469 682.28125 520.089844 C 680.757812 511.703125 678.085938 501.40625 678.46875 493.398438 Z M 713.933594 495.492188 " fill-opacity="1" fill-rule="nonzero"/><g clip-path="url(#aaae9471f0)"><path fill="#55413a" d="M 654.632812 563.566406 C 653.679688 559.941406 650.628906 549.457031 643.953125 545.070312 C 643.953125 545.070312 615.734375 549.835938 607.152344 552.886719 C 598.574219 555.9375 597.046875 558.796875 594.949219 564.898438 C 592.851562 571 628.128906 576.722656 655.777344 576.53125 C 679.613281 576.339844 707.261719 567.1875 714.507812 564.710938 C 715.652344 564.328125 716.222656 563.375 716.222656 562.230469 L 715.460938 552.507812 C 715.460938 552.507812 674.65625 560.894531 656.539062 564.710938 C 655.585938 564.710938 654.824219 564.328125 654.632812 563.566406 Z M 654.632812 563.566406 " fill-opacity="1" fill-rule="nonzero"/></g><path fill="#55413a" d="M 732.050781 253.90625 C 694.292969 248.757812 669.695312 249.902344 661.6875 252.382812 C 653.679688 254.859375 650.054688 257.53125 646.242188 269.925781 C 642.429688 282.320312 635.375 317.210938 631.75 334.945312 C 628.320312 352.488281 615.351562 409.117188 615.351562 409.117188 C 615.351562 409.117188 624.316406 414.648438 647.578125 416.9375 C 646.816406 423.226562 646.242188 428.757812 645.671875 432.953125 C 642.8125 458.695312 641.855469 492.824219 641.855469 492.824219 C 641.855469 492.824219 681.710938 499.6875 713.742188 495.683594 L 717.558594 369.839844 C 717.558594 369.839844 729.570312 372.125 752.261719 368.121094 L 752.261719 345.242188 C 755.121094 346.003906 758.171875 346.578125 761.222656 347.148438 L 821.097656 303.863281 L 812.324219 277.359375 C 812.707031 277.359375 769.804688 259.054688 732.050781 253.90625 Z M 732.050781 253.90625 " fill-opacity="1" fill-rule="nonzero"/><path fill="#55413a" d="M 702.492188 241.703125 L 669.507812 218.25 C 668.933594 217.871094 668.933594 216.917969 669.316406 216.535156 L 673.128906 212.722656 C 673.320312 212.53125 673.511719 212.53125 673.699219 212.339844 L 724.613281 200.710938 C 725.183594 200.519531 725.757812 200.710938 726.328125 201.089844 L 775.332031 237.507812 Z M 702.492188 241.703125 " fill-opacity="1" fill-rule="nonzero"/><path fill="#fbd8b7" d="M 678.085938 214.628906 L 724.421875 203.949219 L 765.417969 233.695312 L 710.3125 236.9375 Z M 678.085938 214.628906 " fill-opacity="1" fill-rule="nonzero"/><path fill="#fbd8b7" d="M 776.859375 225.878906 C 776.859375 225.878906 773.808594 221.875 764.273438 220.160156 C 757.21875 218.824219 750.164062 221.683594 747.113281 223.019531 C 746.160156 223.398438 745.96875 224.734375 746.730469 225.496094 C 747.496094 226.261719 748.828125 226.832031 750.925781 227.402344 C 755.503906 228.355469 757.027344 229.691406 757.027344 229.691406 C 757.027344 229.691406 770.183594 231.980469 776.859375 225.878906 Z M 776.859375 225.878906 " fill-opacity="1" fill-rule="nonzero"/><path fill="#fbd8b7" d="M 726.710938 235.984375 C 726.710938 235.984375 723.660156 236.175781 720.609375 233.886719 C 717.367188 231.597656 716.03125 230.644531 712.789062 231.40625 C 709.550781 232.171875 704.972656 235.984375 704.972656 235.984375 C 704.972656 235.984375 693.914062 236.554688 691.816406 238.273438 C 690.480469 239.417969 689.910156 243.421875 692.386719 245.328125 C 693.914062 246.472656 700.015625 246.28125 700.015625 246.28125 L 700.015625 250.09375 C 700.015625 252.574219 701.730469 254.859375 704.019531 255.433594 C 704.019531 255.433594 702.304688 264.394531 711.835938 265.347656 C 711.835938 265.347656 711.074219 270.304688 717.9375 270.117188 C 724.804688 269.925781 725.566406 267.445312 729.953125 267.445312 C 734.335938 267.253906 737.578125 264.585938 737.578125 264.585938 Z M 726.710938 235.984375 " fill-opacity="1" fill-rule="nonzero"/><path fill="#55413a" d="M 885.929688 100.984375 C 885.929688 100.984375 885.546875 113.1875 878.683594 119.480469 C 872.007812 125.964844 864.191406 132.449219 869.71875 150.753906 L 910.90625 118.71875 L 904.234375 92.40625 Z M 885.929688 100.984375 " fill-opacity="1" fill-rule="nonzero"/><path fill="#ccb4af" d="M 963.726562 137.976562 L 917.390625 109.183594 C 917.390625 109.183594 909.382812 109.566406 904.613281 112.234375 C 890.886719 119.671875 883.832031 136.453125 883.832031 136.453125 C 883.832031 136.453125 852.558594 161.046875 849.128906 164.289062 C 836.160156 176.875 834.636719 199.757812 835.015625 210.625 C 833.300781 211.960938 831.964844 214.4375 830.632812 217.679688 C 830.25 218.824219 756.835938 226.070312 749.59375 233.125 C 740.25 232.742188 731.667969 233.503906 727.664062 234.078125 C 726.328125 234.269531 725.375 235.414062 725.375 236.746094 C 726.136719 250.667969 733.191406 262.296875 735.480469 265.730469 C 743.300781 268.589844 754.359375 265.730469 758.746094 264.203125 C 763.703125 261.726562 767.132812 262.871094 780.863281 267.253906 C 788.679688 270.878906 803.554688 270.496094 819.570312 268.019531 C 819.570312 268.207031 819.570312 268.207031 819.570312 268.398438 L 812.324219 277.550781 L 812.324219 296.621094 L 924.828125 296.621094 C 931.5 282.890625 964.488281 161.621094 963.726562 137.976562 Z M 963.726562 137.976562 " fill-opacity="1" fill-rule="nonzero"/><path fill="#fbd8b7" d="M 876.203125 102.894531 C 882.496094 106.707031 891.839844 103.273438 897.941406 100.984375 L 898.132812 100.984375 C 911.097656 96.410156 920.632812 85.160156 923.109375 71.8125 L 924.636719 63.996094 C 939.320312 57.894531 940.84375 41.496094 938.554688 31.199219 C 935.886719 19.375 926.542969 16.707031 916.820312 14.226562 C 910.144531 12.511719 895.652344 13.847656 888.980469 15.753906 C 863.808594 22.808594 866.480469 28.71875 868.003906 42.828125 C 868.957031 51.410156 875.441406 65.140625 861.710938 68.761719 C 859.234375 69.332031 857.898438 72.195312 859.234375 74.292969 C 859.996094 75.625 860.949219 76.960938 862.476562 78.296875 C 862.476562 78.296875 864.191406 85.730469 866.859375 86.496094 C 866.667969 86.496094 870.292969 99.269531 876.203125 102.894531 Z M 914.53125 66.28125 L 913.957031 67.425781 L 913.957031 66.472656 C 914.148438 66.28125 914.339844 66.28125 914.53125 66.28125 Z M 914.53125 66.28125 " fill-opacity="1" fill-rule="nonzero"/><path fill="#fbd8b7" d="M 920.058594 24.90625 L 886.117188 37.109375 L 898.324219 87.066406 C 900.421875 95.457031 900.992188 104.035156 899.847656 112.617188 L 899.277344 117.191406 L 939.320312 101.175781 Z M 920.058594 24.90625 " fill-opacity="1" fill-rule="nonzero"/><path fill="#55413a" d="M 983.9375 92.597656 C 981.078125 78.105469 972.6875 52.9375 965.0625 35.585938 C 957.433594 18.421875 949.234375 9.460938 938.554688 6.21875 C 927.878906 2.980469 910.527344 0.308594 891.078125 6.21875 C 880.96875 9.269531 872.960938 15.945312 867.8125 21.664062 C 867.433594 22.046875 867.050781 22.617188 866.667969 23 C 860.566406 30.054688 861.710938 36.15625 864.761719 45.117188 L 865.144531 43.019531 C 866.097656 38.253906 868.195312 33.867188 871.246094 29.863281 L 872.007812 43.78125 C 878.300781 47.023438 889.550781 47.023438 889.550781 47.023438 C 889.550781 47.023438 889.550781 40.160156 889.550781 37.109375 C 889.550781 37.109375 890.886719 46.070312 893.554688 47.976562 C 893.554688 47.976562 892.984375 44.546875 893.363281 38.0625 C 893.9375 31.769531 896.035156 25.289062 896.035156 25.289062 C 896.226562 39.207031 895.273438 56.75 900.609375 71.621094 C 905.949219 86.496094 922.730469 121.386719 919.679688 141.027344 C 916.628906 160.667969 900.421875 159.140625 900.421875 159.140625 C 900.421875 159.140625 905.949219 167.722656 919.105469 166.960938 C 932.265625 166.386719 939.699219 152.277344 939.699219 152.277344 C 938.554688 158.761719 934.933594 164.289062 934.933594 164.289062 C 945.421875 162.765625 948.472656 161.238281 948.472656 161.238281 C 955.71875 157.808594 960.675781 151.324219 960.675781 151.324219 C 960.101562 156.089844 959.53125 164.097656 959.53125 164.097656 C 973.640625 161.621094 975.738281 148.464844 975.738281 148.464844 C 987.75 144.460938 989.46875 132.257812 989.847656 124.25 C 990.039062 116.621094 986.796875 107.085938 983.9375 92.597656 Z M 983.9375 92.597656 " fill-opacity="1" fill-rule="nonzero"/><path fill="#27392e" d="M 878.492188 64.949219 C 878.492188 65.429688 878.433594 65.890625 878.316406 66.335938 C 878.203125 66.777344 878.035156 67.171875 877.820312 67.511719 C 877.605469 67.851562 877.359375 68.113281 877.078125 68.296875 C 876.796875 68.480469 876.507812 68.570312 876.203125 68.570312 C 875.898438 68.570312 875.609375 68.480469 875.328125 68.296875 C 875.046875 68.113281 874.800781 67.851562 874.585938 67.511719 C 874.371094 67.171875 874.207031 66.777344 874.089844 66.335938 C 873.972656 65.890625 873.914062 65.429688 873.914062 64.949219 C 873.914062 64.46875 873.972656 64.003906 874.089844 63.5625 C 874.207031 63.117188 874.371094 62.726562 874.585938 62.386719 C 874.800781 62.046875 875.046875 61.785156 875.328125 61.601562 C 875.609375 61.417969 875.898438 61.324219 876.203125 61.324219 C 876.507812 61.324219 876.796875 61.417969 877.078125 61.601562 C 877.359375 61.785156 877.605469 62.046875 877.820312 62.386719 C 878.035156 62.726562 878.203125 63.117188 878.316406 63.5625 C 878.433594 64.003906 878.492188 64.46875 878.492188 64.949219 Z M 878.492188 64.949219 " fill-opacity="1" fill-rule="nonzero"/><path fill="#27392e" d="M 872.199219 84.96875 L 884.976562 85.730469 C 884.976562 85.730469 880.589844 87.066406 873.726562 88.972656 C 873.535156 88.972656 873.34375 88.972656 873.152344 88.78125 L 871.816406 85.542969 C 871.816406 85.351562 871.816406 84.96875 872.199219 84.96875 Z M 872.199219 84.96875 " fill-opacity="1" fill-rule="nonzero"/><path fill="#ccb4af" d="M 904.996094 369.839844 L 886.117188 384.328125 L 928.449219 569.859375 L 939.128906 569.859375 Z M 904.996094 369.839844 " fill-opacity="1" fill-rule="nonzero"/><path fill="#ccb4af" d="M 845.3125 334.371094 L 887.644531 519.710938 L 898.324219 519.710938 L 864.191406 319.691406 Z M 845.3125 334.371094 " fill-opacity="1" fill-rule="nonzero"/><path fill="#ccb4af" d="M 749.972656 569.859375 L 760.84375 569.859375 L 786.394531 384.328125 L 765.992188 384.328125 Z M 749.972656 569.859375 " fill-opacity="1" fill-rule="nonzero"/><path fill="#ccb4af" d="M 753.597656 327.128906 L 737.386719 512.464844 L 748.257812 512.464844 L 773.808594 327.128906 Z M 753.597656 327.128906 " fill-opacity="1" fill-rule="nonzero"/><path fill="#c97061" d="M 742.347656 379.183594 L 746.730469 325.601562 C 748.066406 309.011719 760.652344 295.476562 777.050781 292.804688 C 789.824219 290.707031 806.035156 289.183594 824.71875 289.945312 C 846.648438 290.898438 864.570312 289.753906 876.964844 288.609375 C 889.167969 287.464844 899.65625 279.648438 904.234375 268.398438 L 921.011719 228.546875 C 924.636719 219.96875 932.453125 213.675781 941.605469 212.339844 C 949.234375 211.195312 958.769531 210.242188 968.113281 210.816406 C 970.972656 211.003906 973.070312 213.867188 972.304688 216.535156 C 969.253906 228.167969 961.246094 257.910156 948.472656 291.660156 C 932.074219 335.136719 926.542969 387.378906 853.132812 390.242188 C 797.261719 392.527344 761.796875 388.523438 748.066406 386.425781 C 744.632812 386.046875 741.964844 382.804688 742.347656 379.183594 Z M 742.347656 379.183594 " fill-opacity="1" fill-rule="nonzero"/><g mask="url(#6d453912aa)"><g transform="matrix(1, 0, 0, 1, 108, 126)"><g clip-path="url(#2ae7116fda)"><g clip-path="url(#ed785a0bce)"><path fill="#27392e" d="M 359.003906 104.835938 C 333.070312 113.417969 275.105469 109.601562 249.171875 107.316406 C 258.324219 106.742188 278.917969 100.640625 304.085938 94.539062 C 338.027344 86.148438 330.972656 57.546875 334.785156 52.210938 C 338.601562 46.871094 331.164062 12.167969 330.78125 11.214844 C 330.78125 11.214844 331.164062 11.214844 331.546875 11.214844 C 334.976562 16.363281 339.933594 21.703125 342.984375 24.753906 C 344.703125 26.46875 345.65625 28.566406 346.039062 31.042969 C 348.132812 45.15625 348.707031 82.71875 359.003906 104.835938 Z M 113.40625 28.945312 C 113.597656 24.179688 110.929688 22.082031 108.449219 12.167969 C 108.449219 12.167969 107.304688 11.785156 105.207031 11.40625 C 85.1875 13.121094 59.445312 7.210938 41.519531 7.019531 C 22.070312 6.828125 16.351562 10.261719 3.195312 13.121094 C 2.429688 13.3125 1.667969 13.503906 0.90625 13.503906 C 0.90625 13.503906 35.039062 11.40625 55.820312 17.507812 C 76.796875 23.609375 105.398438 21.890625 105.398438 21.890625 C 105.398438 21.890625 105.398438 21.890625 105.398438 27.804688 C 105.398438 33.714844 101.394531 40.386719 101.394531 47.253906 C 101.394531 54.117188 117.410156 89.582031 117.410156 89.773438 C 115.886719 76.425781 110.929688 53.734375 109.976562 45.535156 C 109.402344 36.957031 113.214844 35.429688 113.40625 28.945312 Z M 543.199219 49.921875 C 542.628906 53.734375 540.339844 58.5 532.523438 65.175781 C 518.984375 76.617188 473.601562 91.296875 473.601562 91.296875 C 473.601562 91.296875 453.199219 99.496094 420.019531 109.601562 C 412.964844 111.699219 406.671875 113.417969 401.144531 114.75 C 400.191406 115.515625 399.808594 115.894531 399.808594 115.894531 C 399.808594 115.894531 464.832031 105.597656 508.117188 92.25 C 519.746094 88.628906 532.332031 89.582031 543.390625 94.730469 L 571.421875 107.886719 C 571.421875 107.886719 572.375 71.847656 565.511719 58.5 C 565.511719 58.5 602.691406 30.28125 614.898438 2.441406 C 604.410156 18.269531 583.816406 38.863281 543.199219 49.921875 Z M 770.109375 120.664062 C 763.054688 128.859375 736.359375 138.011719 712.144531 142.019531 L 711.953125 142.398438 L 704.707031 151.550781 L 702.992188 163.945312 C 702.992188 163.945312 746.847656 156.507812 762.484375 145.832031 C 790.511719 126.765625 810.34375 72.992188 813.96875 62.886719 C 803.480469 80.046875 788.035156 99.6875 770.109375 120.664062 Z M 636.0625 214.285156 C 636.0625 214.285156 625.765625 211.804688 612.226562 207.992188 C 598.6875 204.179688 584.007812 195.597656 584.007812 195.597656 C 584.007812 195.597656 575.042969 192.929688 566.082031 191.59375 C 557.121094 190.257812 555.023438 190.640625 549.300781 205.703125 C 543.390625 220.957031 539.578125 290.746094 539.578125 290.746094 C 538.816406 297.039062 538.242188 302.566406 537.671875 306.761719 C 537.480469 307.90625 537.480469 309.050781 537.289062 310.195312 C 555.59375 304.28125 555.785156 286.550781 556.738281 280.257812 C 566.464844 212.757812 607.460938 320.871094 607.460938 320.871094 L 609.175781 266.339844 L 609.9375 243.648438 C 617.757812 245.171875 635.300781 243.265625 635.300781 243.265625 L 637.585938 214.664062 Z M 636.0625 214.285156 " fill-opacity="1" fill-rule="nonzero"/></g></g></g></g><path fill="#ccb4af" d="M 170.304688 226.449219 C 170.304688 226.640625 170.304688 226.832031 170.113281 226.832031 C 169.921875 226.832031 169.734375 226.832031 169.734375 226.640625 C 167.824219 223.398438 166.300781 219.96875 164.964844 216.535156 C 163.628906 213.101562 162.488281 209.480469 161.535156 206.046875 C 160.578125 202.425781 159.816406 198.800781 159.4375 195.179688 C 158.863281 191.558594 158.671875 187.742188 158.480469 184.121094 C 158.480469 183.929688 158.671875 183.738281 158.863281 183.738281 C 159.054688 183.738281 159.246094 183.929688 159.246094 184.121094 C 159.816406 187.742188 160.199219 191.367188 160.960938 194.988281 C 161.722656 198.613281 162.296875 202.234375 163.441406 205.667969 C 164.394531 209.289062 165.347656 212.722656 166.492188 216.152344 C 167.445312 219.585938 168.777344 223.019531 170.304688 226.449219 Z M 128.546875 154.945312 C 126.640625 153.804688 124.542969 152.660156 122.632812 151.707031 C 120.535156 150.753906 118.441406 149.988281 116.152344 149.417969 C 113.863281 148.84375 111.765625 148.464844 109.476562 148.273438 C 109.285156 148.273438 109.097656 148.464844 109.097656 148.65625 C 109.097656 148.84375 109.097656 149.035156 109.285156 149.226562 C 111.382812 149.800781 113.480469 150.371094 115.578125 151.132812 C 117.675781 151.894531 119.773438 152.660156 121.679688 153.421875 C 123.777344 154.375 125.683594 155.328125 127.59375 156.28125 C 129.5 157.234375 131.40625 158.378906 133.3125 159.523438 C 133.503906 159.523438 133.695312 159.523438 133.695312 159.523438 C 133.882812 159.332031 133.882812 159.140625 133.695312 158.953125 C 132.167969 157.425781 130.453125 156.089844 128.546875 154.945312 Z M 149.140625 170.582031 C 148.1875 169.4375 147.042969 168.292969 145.898438 167.339844 C 144.753906 166.386719 143.609375 165.433594 142.273438 164.480469 C 140.941406 163.527344 139.796875 162.765625 138.269531 162.003906 C 138.078125 162.003906 137.890625 162.003906 137.699219 162.003906 C 137.507812 162.191406 137.507812 162.382812 137.699219 162.574219 C 138.84375 163.71875 139.988281 164.671875 141.128906 165.625 L 147.996094 171.726562 C 149.140625 172.679688 150.28125 173.824219 151.425781 174.777344 C 151.617188 174.96875 151.808594 174.96875 151.808594 174.777344 C 152 174.585938 152 174.394531 152 174.207031 C 151.046875 173.0625 150.09375 171.726562 149.140625 170.582031 Z M 149.140625 170.582031 " fill-opacity="1" fill-rule="nonzero"/><path fill="#27392e" d="M 704.78125 236.554688 C 704.972656 236.554688 705.164062 236.554688 705.355469 236.367188 C 705.542969 235.792969 706.496094 235.03125 707.453125 234.457031 C 708.214844 233.886719 709.167969 233.316406 710.121094 232.933594 C 712.027344 232.171875 713.933594 231.597656 716.03125 231.597656 C 717.9375 231.40625 720.035156 231.789062 722.132812 232.363281 C 724.230469 232.933594 726.136719 233.503906 728.234375 234.269531 C 728.425781 234.269531 728.617188 234.269531 728.617188 234.078125 C 728.808594 233.886719 728.617188 233.695312 728.425781 233.503906 C 726.519531 232.363281 724.613281 231.597656 722.515625 230.835938 C 720.417969 230.074219 718.128906 229.691406 715.839844 229.882812 C 713.554688 230.074219 711.265625 230.644531 709.359375 231.789062 C 708.40625 232.363281 707.453125 232.933594 706.6875 233.695312 C 706.308594 234.078125 705.925781 234.457031 705.542969 234.839844 C 705.164062 235.222656 704.78125 235.792969 704.78125 236.554688 C 704.589844 236.367188 704.589844 236.554688 704.78125 236.554688 Z M 704.78125 236.554688 " fill-opacity="1" fill-rule="nonzero"/><path fill="#27392e" d="M 654.25 141.410156 C 654.25 141.601562 654.632812 141.601562 654.824219 141.601562 C 655.015625 141.601562 655.203125 141.21875 655.015625 141.027344 C 653.871094 137.785156 653.679688 134.355469 654.25 131.113281 C 654.824219 127.871094 656.160156 124.628906 658.066406 121.960938 C 659.019531 120.625 660.164062 119.480469 661.496094 118.335938 C 662.832031 117.382812 664.359375 116.429688 665.691406 115.667969 C 668.742188 114.140625 671.984375 112.808594 675.035156 111.089844 C 675.226562 111.089844 675.226562 110.710938 675.226562 110.710938 C 675.226562 110.519531 674.84375 110.519531 674.65625 110.519531 C 671.414062 111.855469 668.171875 112.808594 664.929688 114.332031 C 661.6875 115.667969 658.636719 117.957031 656.347656 120.816406 C 654.25 123.675781 652.726562 127.109375 652.34375 130.730469 C 652.152344 132.449219 652.152344 134.355469 652.34375 136.070312 C 653.109375 137.976562 653.488281 139.691406 654.25 141.410156 Z M 654.25 141.410156 " fill-opacity="1" fill-rule="nonzero"/><path fill="#27392e" d="M 703.828125 256.957031 C 704.210938 257.148438 704.589844 257.148438 705.164062 256.957031 C 705.542969 256.957031 705.925781 256.769531 706.308594 256.578125 C 706.6875 256.386719 707.070312 256.195312 707.261719 255.816406 C 707.261719 255.816406 707.261719 255.625 707.261719 255.625 C 707.261719 255.433594 707.261719 255.242188 706.878906 255.050781 C 706.496094 254.859375 706.117188 254.859375 705.734375 254.859375 C 705.355469 254.859375 704.972656 254.859375 704.78125 254.859375 C 704.402344 254.859375 704.019531 254.859375 703.828125 255.050781 C 703.445312 255.050781 703.066406 255.242188 702.683594 255.433594 C 702.683594 255.433594 702.492188 255.433594 702.492188 255.625 C 702.304688 255.816406 702.304688 256.195312 702.492188 256.195312 C 703.066406 256.578125 703.445312 256.769531 703.828125 256.957031 Z M 703.828125 256.957031 " fill-opacity="1" fill-rule="nonzero"/><path fill="#27392e" d="M 698.488281 101.75 C 697.917969 100.03125 697.34375 98.316406 696.773438 96.410156 C 696.203125 94.695312 695.820312 92.785156 695.4375 91.070312 C 695.058594 89.355469 694.867188 87.449219 694.675781 85.542969 C 694.484375 83.632812 694.292969 81.917969 694.292969 80.011719 C 694.292969 79.820312 694.105469 79.628906 693.914062 79.628906 C 693.722656 79.628906 693.53125 79.820312 693.339844 80.011719 C 692.960938 81.917969 692.769531 83.824219 692.960938 85.730469 C 692.960938 87.636719 693.148438 89.546875 693.53125 91.453125 C 693.914062 93.359375 694.484375 95.265625 695.058594 96.980469 C 695.820312 98.699219 696.582031 100.414062 697.726562 102.128906 C 697.726562 102.320312 697.917969 102.320312 698.109375 102.320312 C 698.488281 102.128906 698.488281 101.9375 698.488281 101.75 Z M 698.488281 101.75 " fill-opacity="1" fill-rule="nonzero"/><path fill="#27392e" d="M 690.289062 81.726562 C 690.480469 81.726562 690.671875 81.535156 690.671875 81.347656 C 690.671875 78.675781 690.863281 75.816406 691.625 73.339844 C 692.195312 70.667969 693.148438 68.191406 694.484375 65.710938 C 695.628906 63.230469 697.34375 61.132812 699.0625 59.039062 C 700.777344 56.941406 702.875 55.222656 705.164062 53.699219 C 705.355469 53.507812 705.355469 53.316406 705.355469 53.125 C 705.355469 52.9375 704.972656 52.746094 704.78125 52.9375 C 702.113281 54.078125 699.824219 55.796875 697.726562 57.894531 C 695.628906 59.992188 694.105469 62.277344 692.578125 64.757812 C 691.242188 67.234375 690.289062 70.097656 689.71875 72.765625 C 689.144531 75.625 689.144531 78.484375 689.71875 81.347656 C 689.910156 81.726562 690.097656 81.726562 690.289062 81.726562 Z M 690.289062 81.726562 " fill-opacity="1" fill-rule="nonzero"/><path fill="#27392e" d="M 714.316406 264.394531 C 713.933594 264.394531 713.742188 264.394531 713.554688 264.394531 C 713.363281 264.394531 713.171875 264.394531 712.980469 264.585938 C 712.789062 264.585938 712.601562 264.777344 712.410156 264.777344 C 712.21875 264.96875 712.027344 264.96875 711.644531 265.15625 C 711.457031 265.347656 711.457031 265.730469 711.644531 265.921875 C 711.835938 266.109375 712.21875 266.300781 712.601562 266.300781 C 712.980469 266.300781 713.363281 266.300781 713.554688 266.300781 C 713.933594 266.109375 714.125 266.109375 714.507812 265.730469 C 714.699219 265.539062 714.886719 265.15625 715.078125 264.777344 C 714.699219 264.585938 714.507812 264.394531 714.316406 264.394531 Z M 714.316406 264.394531 " fill-opacity="1" fill-rule="nonzero"/><path fill="#27392e" d="M 896.414062 103.847656 C 898.511719 103.273438 900.609375 102.511719 902.515625 101.367188 C 903.472656 100.796875 904.425781 100.414062 905.378906 99.652344 C 906.332031 99.078125 907.09375 98.316406 908.046875 97.554688 C 908.238281 97.363281 908.238281 97.363281 908.238281 97.171875 C 908.238281 96.980469 907.855469 96.792969 907.664062 96.980469 C 906.710938 97.363281 905.570312 97.746094 904.613281 98.316406 C 903.660156 98.699219 902.707031 99.269531 901.753906 99.652344 C 900.800781 100.222656 899.847656 100.605469 898.894531 101.175781 C 897.941406 101.75 896.988281 102.320312 896.226562 103.082031 C 896.035156 103.082031 896.035156 103.273438 896.035156 103.464844 C 896.035156 103.65625 896.226562 103.847656 896.414062 103.847656 Z M 896.414062 103.847656 " fill-opacity="1" fill-rule="nonzero"/><path fill="#27392e" d="M 876.777344 51.027344 C 877.539062 51.410156 878.300781 51.792969 879.0625 52.363281 C 879.828125 52.746094 880.589844 53.125 881.351562 53.507812 C 882.113281 53.890625 882.878906 54.269531 883.832031 54.460938 C 884.023438 54.460938 884.023438 54.460938 884.210938 54.460938 C 884.402344 54.269531 884.402344 54.078125 884.210938 53.890625 C 883.640625 53.125 882.878906 52.554688 882.113281 52.171875 C 881.351562 51.601562 880.589844 51.21875 879.828125 50.839844 C 879.0625 50.457031 878.109375 50.074219 877.347656 49.695312 C 876.585938 49.3125 875.632812 49.121094 874.679688 48.929688 C 874.488281 48.929688 874.296875 48.929688 874.296875 49.121094 C 874.105469 49.3125 874.105469 49.503906 874.296875 49.695312 C 875.25 50.265625 876.011719 50.648438 876.777344 51.027344 Z M 876.777344 51.027344 " fill-opacity="1" fill-rule="nonzero"/><path fill="#27392e" d="M 755.121094 249.140625 C 754.167969 246.472656 753.40625 243.800781 752.644531 241.324219 C 751.878906 238.652344 751.117188 235.984375 750.355469 233.316406 C 750.355469 233.125 750.164062 232.933594 749.972656 232.933594 C 749.78125 232.933594 749.589844 233.125 749.589844 233.316406 C 749.972656 236.175781 750.546875 238.84375 751.117188 241.515625 C 751.6875 244.183594 752.644531 246.851562 753.40625 249.523438 C 754.359375 252.191406 755.3125 254.859375 756.648438 257.339844 C 757.980469 259.820312 759.507812 262.296875 761.222656 264.394531 C 761.414062 264.585938 761.605469 264.585938 761.605469 264.394531 C 761.796875 264.203125 761.796875 264.015625 761.796875 263.824219 C 760.269531 261.535156 759.125 259.054688 757.980469 256.578125 C 756.835938 254.480469 755.882812 251.808594 755.121094 249.140625 Z M 755.121094 249.140625 " fill-opacity="1" fill-rule="nonzero"/><path fill="#27392e" d="M 578.742188 115.097656 C 581.410156 111.664062 584.460938 108.613281 587.894531 105.945312 C 591.328125 103.464844 595.140625 101.367188 599.335938 100.03125 C 603.339844 98.507812 607.726562 97.554688 611.921875 97.171875 C 616.304688 96.601562 620.691406 96.601562 624.886719 96.980469 C 625.078125 96.980469 625.269531 96.792969 625.269531 96.601562 C 625.269531 96.410156 625.078125 96.21875 624.886719 96.21875 C 620.5 95.457031 616.117188 95.265625 611.539062 95.648438 C 607.152344 96.027344 602.578125 96.792969 598.382812 98.316406 C 594.1875 99.84375 590.183594 101.9375 586.558594 104.800781 C 582.9375 107.46875 579.886719 110.902344 577.597656 114.714844 C 577.40625 114.90625 577.597656 115.097656 577.789062 115.285156 C 578.359375 115.285156 578.550781 115.285156 578.742188 115.097656 Z M 578.742188 115.097656 " fill-opacity="1" fill-rule="nonzero"/><path fill="#27392e" d="M 698.679688 247.042969 L 699.253906 247.234375 L 700.207031 247.425781 C 700.777344 247.425781 701.351562 247.425781 701.921875 247.425781 C 702.492188 247.425781 703.066406 247.425781 703.636719 247.234375 C 704.210938 247.042969 704.78125 247.042969 705.355469 246.664062 C 705.355469 246.664062 705.542969 246.472656 705.542969 246.472656 C 705.542969 246.28125 705.542969 246.089844 705.355469 245.898438 C 704.78125 245.707031 704.210938 245.519531 703.636719 245.519531 C 703.066406 245.328125 702.492188 245.328125 701.921875 245.328125 C 701.351562 245.328125 700.777344 245.328125 700.207031 245.519531 L 699.253906 245.707031 C 698.871094 245.898438 698.871094 245.707031 698.871094 246.089844 C 698.871094 245.898438 698.488281 245.707031 698.296875 245.898438 C 698.109375 245.898438 697.917969 246.28125 698.109375 246.472656 C 698.109375 246.851562 698.488281 247.042969 698.679688 247.042969 Z M 698.679688 247.042969 " fill-opacity="1" fill-rule="nonzero"/><path fill="#27392e" d="M 744.0625 340.09375 C 738.339844 338.757812 732.621094 337.234375 727.089844 335.515625 C 721.5625 333.800781 716.03125 331.703125 710.503906 329.605469 C 704.972656 327.507812 699.824219 324.839844 694.484375 322.167969 C 689.335938 319.5 684.1875 316.449219 679.230469 313.207031 C 679.039062 313.015625 678.847656 313.207031 678.660156 313.207031 C 678.46875 313.398438 678.46875 313.589844 678.660156 313.78125 C 681.710938 316.257812 685.140625 318.546875 688.382812 320.644531 C 684.761719 319.5 680.945312 318.546875 677.132812 317.785156 C 674.464844 317.210938 671.605469 317.023438 668.742188 317.210938 C 667.410156 317.402344 665.882812 317.59375 664.546875 318.355469 C 663.785156 318.738281 663.214844 319.117188 662.640625 319.691406 C 662.070312 320.261719 661.6875 320.835938 661.308594 321.40625 C 658.257812 326.363281 656.921875 331.703125 655.585938 337.042969 C 654.25 342.382812 653.296875 347.71875 652.535156 353.25 C 650.820312 364.117188 649.675781 374.988281 648.914062 385.855469 C 648.53125 391.386719 648.148438 396.722656 647.769531 402.253906 C 647.578125 407.78125 647.195312 413.121094 647.003906 418.652344 C 647.003906 418.84375 647.195312 419.03125 647.386719 419.03125 C 647.578125 419.03125 647.769531 418.84375 647.769531 418.652344 C 648.148438 413.121094 648.53125 407.78125 648.914062 402.253906 C 649.292969 396.722656 649.867188 391.386719 650.246094 385.855469 C 651.199219 374.988281 652.535156 364.117188 654.0625 353.25 C 654.824219 347.910156 655.777344 342.570312 657.113281 337.234375 C 657.683594 334.5625 658.445312 331.894531 659.210938 329.414062 C 660.164062 326.9375 660.925781 324.265625 662.449219 322.167969 C 662.832031 321.597656 663.214844 321.027344 663.59375 320.644531 C 663.976562 320.261719 664.546875 319.882812 664.929688 319.5 C 666.074219 318.929688 667.21875 318.738281 668.554688 318.546875 C 671.222656 318.355469 673.890625 318.546875 676.5625 318.929688 C 681.328125 319.691406 686.09375 320.835938 690.863281 322.167969 C 691.625 322.550781 692.386719 323.125 693.152344 323.503906 C 698.300781 326.363281 703.636719 329.035156 709.167969 331.132812 C 714.699219 333.230469 720.226562 335.328125 725.949219 336.851562 C 728.808594 337.613281 731.667969 338.378906 734.527344 338.949219 C 737.386719 339.519531 740.4375 340.09375 743.300781 340.472656 C 743.492188 340.472656 743.679688 340.472656 743.679688 340.285156 C 744.445312 340.285156 744.253906 340.09375 744.0625 340.09375 Z M 744.0625 340.09375 " fill-opacity="1" fill-rule="nonzero"/><path fill="#27392e" d="M 620.308594 134.542969 C 618.59375 133.78125 617.070312 133.210938 615.351562 132.636719 C 613.636719 132.066406 611.921875 131.492188 610.203125 130.921875 C 608.488281 130.351562 606.773438 129.96875 605.054688 129.585938 C 604.867188 129.585938 604.675781 129.585938 604.675781 129.777344 C 604.484375 129.96875 604.675781 130.160156 604.867188 130.351562 C 606.390625 131.113281 608.105469 131.875 609.824219 132.636719 C 611.539062 133.402344 613.066406 133.972656 614.78125 134.542969 C 616.496094 135.117188 618.214844 135.6875 619.929688 136.261719 C 621.644531 136.832031 623.363281 137.214844 625.078125 137.59375 C 625.269531 137.59375 625.457031 137.59375 625.457031 137.40625 C 625.457031 137.214844 625.457031 137.023438 625.269531 136.832031 C 623.550781 135.878906 621.835938 135.117188 620.308594 134.542969 Z M 620.308594 134.542969 " fill-opacity="1" fill-rule="nonzero"/><path fill="#27392e" d="M 713.742188 358.589844 C 712.980469 357.445312 712.027344 356.300781 711.074219 355.347656 C 710.882812 355.15625 710.882812 355.15625 710.691406 355.347656 C 710.503906 355.347656 710.503906 355.730469 710.503906 355.917969 C 711.074219 357.253906 711.835938 358.398438 712.410156 359.542969 L 714.316406 363.164062 C 714.886719 364.308594 715.460938 365.644531 716.03125 366.789062 C 716.605469 367.933594 717.175781 369.265625 717.75 370.601562 C 717.75 370.792969 717.9375 370.792969 718.128906 370.792969 C 718.320312 370.792969 718.511719 370.601562 718.511719 370.410156 C 718.320312 367.550781 717.175781 364.882812 716.03125 362.402344 C 715.269531 360.875 714.507812 359.734375 713.742188 358.589844 Z M 713.742188 358.589844 " fill-opacity="1" fill-rule="nonzero"/><path fill="#27392e" d="M 911.289062 491.679688 C 911.097656 489.964844 910.71875 488.4375 910.335938 486.722656 C 909.953125 485.007812 909.574219 483.480469 909 481.765625 C 908.621094 480.238281 908.046875 478.523438 907.476562 477 C 907.476562 476.808594 907.285156 476.808594 907.09375 476.808594 C 906.902344 476.808594 906.710938 477 906.710938 477.1875 C 906.902344 478.332031 906.902344 479.476562 907.09375 480.8125 C 904.613281 475.28125 902.136719 469.753906 899.65625 464.222656 L 889.550781 442.867188 L 886.117188 435.8125 C 886.308594 435.429688 886.308594 435.050781 886.5 434.667969 C 887.644531 431.046875 888.789062 427.613281 889.742188 423.992188 C 890.503906 421.128906 891.265625 418.460938 892.03125 415.601562 C 892.03125 415.601562 892.03125 415.792969 892.03125 415.792969 C 892.410156 417.125 892.792969 418.460938 893.363281 419.988281 C 893.363281 420.175781 893.554688 420.175781 893.746094 420.175781 C 893.9375 420.175781 894.128906 419.988281 894.128906 419.796875 C 894.128906 418.269531 893.746094 416.9375 893.554688 415.410156 C 893.363281 414.074219 892.984375 412.550781 892.792969 411.214844 C 892.410156 409.878906 892.222656 408.355469 891.648438 407.019531 C 891.265625 405.6875 890.886719 404.351562 890.3125 402.824219 C 890.3125 402.636719 890.125 402.636719 889.933594 402.636719 C 889.742188 402.636719 889.550781 402.824219 889.550781 403.015625 C 889.550781 404.542969 889.933594 405.875 890.125 407.402344 C 890.3125 408.355469 890.503906 409.117188 890.695312 410.070312 C 885.738281 411.789062 880.78125 413.3125 875.824219 415.027344 C 873.914062 411.023438 872.007812 407.210938 869.910156 403.207031 C 869.71875 402.253906 869.53125 401.492188 869.339844 400.539062 C 869.148438 399.394531 868.765625 398.058594 868.386719 396.914062 C 868.003906 395.769531 867.625 394.625 867.242188 393.484375 C 867.242188 393.292969 867.050781 393.292969 866.859375 393.292969 C 866.667969 393.292969 866.480469 393.484375 866.480469 393.671875 C 866.480469 395.007812 866.667969 396.152344 866.859375 397.296875 C 866.859375 397.488281 866.859375 397.488281 866.859375 397.675781 C 859.425781 401.871094 851.988281 405.875 844.550781 410.261719 L 821.667969 423.417969 L 820.90625 423.800781 L 815.375 419.988281 C 805.078125 412.929688 794.78125 405.875 784.296875 399.011719 C 784.296875 398.058594 784.296875 397.296875 784.296875 396.34375 C 784.296875 396.152344 784.105469 395.960938 783.914062 395.960938 C 783.722656 395.960938 783.53125 395.960938 783.34375 396.152344 C 782.960938 397.867188 782.578125 399.394531 782.199219 401.109375 C 781.816406 402.824219 781.625 404.542969 781.433594 406.066406 C 781.246094 407.78125 781.054688 409.5 780.863281 411.214844 C 780.671875 412.929688 780.671875 414.648438 780.671875 416.363281 C 780.671875 416.554688 780.863281 416.746094 780.863281 416.746094 C 781.054688 416.746094 781.246094 416.746094 781.246094 416.554688 C 781.625 415.027344 782.007812 413.3125 782.390625 411.789062 C 791.921875 417.699219 801.457031 423.417969 811.183594 429.328125 L 798.597656 436.765625 C 791.542969 440.960938 784.296875 445.347656 777.242188 449.730469 C 777.242188 449.351562 777.242188 448.96875 777.429688 448.585938 C 777.621094 447.253906 777.621094 445.917969 777.621094 444.394531 C 777.621094 444.203125 777.429688 444.011719 777.242188 444.011719 C 777.050781 444.011719 776.859375 444.011719 776.667969 444.203125 C 776.289062 445.535156 775.90625 446.871094 775.714844 448.207031 C 775.523438 449.542969 775.144531 450.875 774.953125 452.210938 C 774.761719 453.546875 774.570312 454.878906 774.570312 456.214844 C 774.570312 457.550781 774.378906 458.882812 774.378906 460.410156 C 774.378906 460.601562 774.570312 460.792969 774.570312 460.792969 C 774.761719 460.792969 774.953125 460.792969 774.953125 460.601562 C 775.332031 459.265625 775.714844 457.929688 775.90625 456.597656 C 776.289062 455.261719 776.476562 453.925781 776.667969 452.59375 C 776.667969 452.019531 776.859375 451.449219 776.859375 450.875 C 786.203125 447.824219 795.546875 444.582031 804.890625 441.34375 L 821.480469 435.621094 L 824.910156 437.71875 L 818.617188 443.25 L 794.59375 464.796875 C 786.964844 471.660156 779.527344 478.523438 772.09375 485.386719 C 772.09375 485.199219 772.09375 484.816406 772.09375 484.625 C 772.28125 483.289062 772.28125 481.957031 772.28125 480.429688 C 772.28125 480.238281 772.09375 480.050781 771.902344 480.050781 C 771.710938 480.050781 771.519531 480.050781 771.328125 480.238281 C 770.949219 481.574219 770.566406 482.910156 770.375 484.246094 C 770.183594 485.578125 769.804688 486.914062 769.613281 488.25 C 769.421875 489.582031 769.230469 490.917969 769.230469 492.253906 C 769.230469 493.585938 769.042969 494.921875 769.042969 496.449219 C 769.042969 496.636719 769.230469 496.828125 769.230469 496.828125 C 769.421875 496.828125 769.613281 496.828125 769.613281 496.636719 C 769.996094 495.304688 770.375 493.96875 770.566406 492.632812 C 770.949219 491.300781 771.140625 489.964844 771.328125 488.628906 C 771.328125 488.058594 771.519531 487.296875 771.519531 486.722656 C 781.4375 480.621094 791.160156 474.519531 800.886719 468.226562 L 830.820312 449.160156 L 837.113281 445.15625 L 843.789062 449.160156 L 875.441406 467.847656 C 885.738281 473.949219 896.035156 479.859375 906.523438 485.769531 C 906.710938 486.339844 906.710938 486.722656 906.902344 487.296875 C 907.285156 489.011719 907.667969 490.535156 908.238281 492.253906 C 908.621094 493.777344 909.191406 495.492188 909.761719 497.019531 C 909.761719 497.210938 909.953125 497.210938 910.144531 497.210938 C 910.335938 497.210938 910.527344 497.019531 910.527344 496.828125 C 911.859375 494.921875 911.671875 493.398438 911.289062 491.679688 Z M 891.078125 411.023438 C 891.078125 411.214844 891.078125 411.40625 891.265625 411.597656 C 891.457031 412.359375 891.648438 413.121094 891.839844 413.886719 C 890.695312 417.125 889.550781 420.175781 888.40625 423.417969 C 887.261719 426.660156 886.308594 430.09375 885.164062 433.332031 L 879.636719 421.703125 C 879.253906 420.941406 878.875 420.175781 878.492188 419.414062 C 882.6875 416.554688 886.882812 413.886719 891.078125 411.023438 Z M 888.789062 411.597656 C 885.164062 413.886719 881.542969 416.171875 877.917969 418.460938 C 877.539062 417.699219 877.15625 416.9375 876.777344 416.171875 C 880.78125 414.648438 884.785156 413.121094 888.789062 411.597656 Z M 876.585938 419.222656 C 871.628906 422.273438 866.480469 425.515625 861.519531 428.566406 L 844.359375 439.433594 L 834.445312 432.570312 L 836.734375 430.472656 L 863.617188 420.75 C 867.625 419.222656 871.4375 417.890625 875.441406 416.363281 C 875.824219 417.507812 876.203125 418.269531 876.585938 419.222656 Z M 868.765625 404.542969 C 869.148438 405.6875 869.53125 406.828125 869.910156 407.972656 C 869.910156 408.164062 870.101562 408.164062 870.292969 408.164062 C 870.484375 408.164062 870.675781 407.972656 870.675781 407.78125 C 870.675781 407.210938 870.675781 406.640625 870.484375 406.257812 C 871.816406 409.308594 873.34375 412.359375 874.679688 415.410156 C 870.675781 416.746094 866.667969 418.078125 862.855469 419.414062 L 840.164062 427.230469 L 844.933594 422.847656 C 852.75 415.792969 860.378906 408.738281 868.003906 401.679688 C 868.386719 402.824219 868.578125 403.589844 868.765625 404.542969 Z M 845.886719 411.597656 C 853.132812 407.210938 860.378906 403.015625 867.433594 398.441406 C 867.621094 399.203125 867.8125 399.964844 867.8125 400.917969 C 859.804688 407.78125 851.796875 414.648438 843.789062 421.703125 L 835.78125 428.757812 L 834.0625 429.328125 L 831.203125 430.472656 L 823.195312 424.945312 Z M 783.53125 410.832031 C 783.722656 409.308594 784.105469 407.972656 784.296875 406.449219 C 784.484375 404.730469 784.675781 403.015625 784.867188 401.300781 C 784.867188 400.726562 784.867188 400.347656 785.058594 399.773438 C 795.164062 407.019531 805.078125 414.074219 815.1875 421.320312 L 819.953125 424.753906 L 813.851562 428.375 C 803.746094 422.464844 793.640625 416.554688 783.53125 410.832031 Z M 805.460938 439.625 C 797.453125 442.484375 789.445312 445.535156 781.433594 448.398438 C 787.726562 444.964844 794.019531 441.53125 800.121094 437.910156 L 813.660156 430.09375 L 820.335938 434.097656 Z M 815.566406 429.328125 L 821.667969 425.898438 L 829.296875 431.234375 L 822.8125 433.523438 Z M 824.71875 434.859375 L 831.011719 432.570312 L 831.394531 432.761719 L 827.390625 436.382812 Z M 831.585938 447.632812 L 801.648438 466.894531 C 793.257812 472.230469 785.058594 477.761719 776.859375 483.289062 C 783.53125 477.570312 790.207031 471.660156 796.878906 465.9375 L 821.097656 444.582031 L 827.769531 438.480469 L 837.113281 444.011719 Z M 838.832031 443.058594 L 829.105469 437.335938 L 832.917969 433.90625 L 842.644531 440.578125 Z M 877.917969 466.320312 L 846.457031 447.445312 L 840.546875 444.011719 L 844.167969 441.722656 L 846.265625 443.058594 L 877.539062 464.605469 C 884.023438 468.988281 890.3125 473.375 896.796875 477.761719 C 890.503906 473.949219 884.210938 470.132812 877.917969 466.320312 Z M 878.492188 463.460938 L 847.410156 441.53125 L 846.074219 440.578125 L 862.664062 429.902344 C 867.625 426.660156 872.390625 423.417969 877.347656 420.175781 C 877.730469 420.941406 877.917969 421.703125 878.300781 422.273438 L 884.59375 435.621094 C 883.640625 438.480469 882.6875 441.53125 881.925781 444.394531 C 881.160156 446.871094 880.589844 449.160156 879.828125 451.636719 C 879.636719 450.875 879.445312 450.304688 879.253906 449.542969 C 878.875 448.398438 878.492188 447.253906 878.109375 446.109375 C 878.109375 445.917969 877.917969 445.917969 877.730469 445.917969 C 877.539062 445.917969 877.347656 446.109375 877.347656 446.300781 C 877.347656 447.632812 877.539062 448.777344 877.730469 449.921875 C 877.917969 451.066406 878.109375 452.402344 878.300781 453.546875 C 878.492188 454.6875 878.875 456.023438 879.253906 457.167969 C 879.636719 458.3125 880.015625 459.457031 880.398438 460.601562 C 880.398438 460.789062 880.589844 460.789062 880.78125 460.789062 C 880.96875 460.789062 881.160156 460.601562 881.160156 460.410156 C 881.160156 459.074219 880.96875 457.929688 880.78125 456.785156 C 880.589844 455.644531 880.398438 454.6875 880.207031 453.734375 C 881.351562 450.875 882.304688 448.015625 883.257812 444.964844 C 884.023438 442.675781 884.785156 440.390625 885.546875 438.101562 L 888.027344 443.441406 L 898.324219 464.605469 C 901.375 470.898438 904.613281 477.378906 907.855469 483.671875 C 907.855469 483.863281 907.855469 484.054688 908.046875 484.242188 C 898.132812 477.378906 888.40625 470.324219 878.492188 463.460938 Z M 878.492188 463.460938 " fill-opacity="1" fill-rule="nonzero"/><path fill="#27392e" d="M 790.398438 171.726562 C 794.972656 171.726562 799.742188 171.535156 804.316406 171.34375 C 804.507812 171.34375 804.699219 171.15625 804.699219 170.964844 C 804.699219 170.773438 804.507812 170.582031 804.316406 170.582031 C 799.742188 170.390625 794.972656 170.203125 790.398438 170.203125 L 776.476562 170.011719 L 769.613281 170.011719 C 769.230469 170.011719 768.660156 170.011719 768.277344 170.011719 C 768.277344 169.628906 768.085938 169.246094 768.085938 168.867188 C 767.898438 168.292969 767.707031 167.722656 767.515625 167.339844 C 767.324219 166.769531 766.945312 166.386719 766.753906 165.816406 C 766.371094 165.242188 765.992188 164.863281 765.609375 164.480469 C 765.609375 164.480469 765.417969 164.289062 765.417969 164.289062 C 765.226562 164.289062 765.035156 164.480469 765.035156 164.671875 C 765.035156 165.242188 765.226562 165.816406 765.417969 166.386719 C 765.609375 166.960938 765.800781 167.53125 765.992188 168.105469 C 766.179688 168.675781 766.5625 169.058594 766.753906 169.628906 C 766.945312 169.820312 767.132812 170.011719 767.132812 170.203125 C 765.609375 170.582031 764.082031 171.15625 762.75 172.109375 C 760.652344 173.632812 759.125 175.730469 758.554688 178.019531 C 758.171875 179.164062 757.980469 180.496094 757.980469 181.640625 C 757.980469 182.785156 757.980469 183.929688 758.171875 185.074219 C 758.171875 185.265625 758.363281 185.457031 758.554688 185.457031 C 758.746094 185.457031 758.933594 185.265625 758.933594 185.074219 L 759.125 181.640625 C 759.125 180.496094 759.507812 179.542969 759.886719 178.398438 C 760.652344 176.304688 761.984375 174.585938 763.894531 173.441406 C 765.609375 172.296875 767.707031 171.726562 769.996094 171.726562 Z M 790.398438 171.726562 " fill-opacity="1" fill-rule="nonzero"/><path fill="#27392e" d="M 764.847656 400.347656 C 764.65625 400.347656 764.464844 400.347656 764.273438 400.539062 C 762.75 406.257812 761.03125 411.976562 759.699219 417.699219 L 757.21875 427.804688 L 757.027344 418.652344 C 756.835938 411.023438 756.457031 403.589844 756.265625 395.960938 C 756.265625 395.769531 756.074219 395.578125 755.882812 395.578125 C 755.695312 395.578125 755.503906 395.769531 755.503906 395.960938 C 755.503906 403.589844 755.503906 411.023438 755.503906 418.652344 L 755.695312 434.285156 L 755.503906 434.667969 L 751.308594 452.019531 C 749.972656 457.738281 748.636719 463.652344 747.496094 469.371094 C 747.496094 469.5625 747.496094 469.753906 747.683594 469.753906 C 747.875 469.753906 748.066406 469.753906 748.066406 469.5625 C 749.78125 463.84375 751.308594 458.121094 752.832031 452.402344 L 755.503906 441.53125 L 756.074219 463.84375 C 756.265625 471.46875 756.648438 478.90625 756.835938 486.53125 C 756.835938 486.722656 757.027344 486.914062 757.21875 486.914062 C 757.410156 486.914062 757.601562 486.722656 757.601562 486.53125 C 757.601562 478.90625 757.792969 471.46875 757.601562 463.84375 L 757.410156 441.152344 L 757.21875 434.667969 L 761.222656 417.890625 C 762.558594 412.167969 763.894531 406.257812 765.035156 400.539062 C 765.035156 400.726562 765.035156 400.347656 764.847656 400.347656 Z M 764.847656 400.347656 " fill-opacity="1" fill-rule="nonzero"/><path fill="#27392e" d="M 561.199219 178.398438 C 565.203125 174.777344 569.78125 171.535156 574.546875 168.675781 C 579.3125 165.816406 584.273438 163.335938 589.421875 161.621094 L 591.328125 160.859375 L 593.234375 160.285156 C 594.570312 159.90625 595.902344 159.523438 597.238281 159.140625 C 599.90625 158.570312 602.578125 157.808594 605.246094 157.425781 C 610.585938 156.472656 616.117188 156.28125 621.644531 156.28125 C 621.835938 156.28125 622.027344 156.089844 622.027344 155.902344 C 622.027344 155.710938 621.835938 155.519531 621.644531 155.519531 L 617.449219 155.328125 C 616.117188 155.328125 614.589844 155.136719 613.253906 155.328125 C 610.394531 155.519531 607.726562 155.519531 604.867188 155.902344 C 599.335938 156.472656 593.804688 157.996094 588.65625 159.90625 C 583.320312 161.8125 578.359375 164.289062 573.59375 167.339844 C 568.828125 170.390625 564.441406 173.824219 560.628906 177.828125 C 560.4375 178.019531 560.4375 178.210938 560.628906 178.398438 C 560.628906 178.589844 561.007812 178.589844 561.199219 178.398438 Z M 561.199219 178.398438 " fill-opacity="1" fill-rule="nonzero"/><path fill="#27392e" d="M 105.855469 185.265625 C 105.855469 185.457031 106.046875 185.644531 106.234375 185.644531 C 106.425781 185.644531 106.617188 185.457031 106.617188 185.265625 C 106.617188 184.121094 106.808594 182.976562 106.808594 181.832031 C 106.808594 180.6875 106.617188 179.355469 106.234375 178.210938 C 105.472656 175.921875 103.949219 173.824219 102.039062 172.296875 C 100.707031 171.34375 99.179688 170.773438 97.65625 170.390625 C 98.226562 169.628906 98.609375 168.675781 99.179688 167.914062 C 99.753906 166.769531 100.324219 165.625 100.898438 164.480469 C 101.46875 163.335938 101.851562 162.191406 102.421875 160.859375 C 102.804688 159.714844 103.375 158.378906 103.566406 157.234375 C 103.566406 157.042969 103.566406 156.855469 103.375 156.855469 C 103.183594 156.664062 102.996094 156.855469 102.804688 156.855469 C 102.039062 157.996094 101.46875 158.953125 100.707031 160.09375 C 100.132812 161.238281 99.5625 162.382812 98.988281 163.527344 C 98.417969 164.671875 97.847656 165.816406 97.464844 167.148438 C 97.082031 168.105469 96.703125 169.246094 96.511719 170.203125 C 95.9375 170.203125 95.558594 170.011719 94.984375 170.011719 L 88.121094 170.011719 L 74.203125 170.203125 C 69.625 170.203125 64.859375 170.390625 60.28125 170.582031 C 60.089844 170.582031 59.902344 170.773438 59.902344 170.964844 C 59.902344 171.15625 60.089844 171.34375 60.28125 171.34375 C 64.859375 171.535156 69.625 171.726562 74.203125 171.726562 L 88.121094 171.917969 L 94.984375 171.917969 C 97.082031 171.917969 99.179688 172.488281 101.085938 173.632812 C 102.804688 174.777344 104.328125 176.492188 105.09375 178.589844 C 105.472656 179.542969 105.664062 180.6875 105.855469 181.832031 Z M 105.855469 185.265625 " fill-opacity="1" fill-rule="nonzero"/><path fill="#27392e" d="M 432.679688 275.074219 C 432.679688 274.882812 432.488281 274.691406 432.300781 274.691406 C 432.109375 274.691406 431.917969 274.882812 431.917969 275.074219 C 431.917969 276.597656 431.726562 278.125 431.726562 279.648438 L 394.925781 279.269531 L 357.554688 279.078125 L 282.804688 278.886719 L 208.058594 279.078125 L 170.6875 279.078125 L 133.3125 279.269531 C 133.121094 279.269531 132.929688 279.457031 132.929688 279.648438 C 132.929688 279.839844 133.121094 280.03125 133.3125 280.03125 L 170.6875 280.222656 L 208.058594 280.222656 L 282.804688 280.410156 L 357.554688 280.222656 L 394.925781 280.03125 L 431.726562 279.839844 C 431.726562 282.507812 431.535156 284.988281 431.535156 287.65625 C 431.535156 292.042969 431.535156 296.238281 431.347656 300.625 C 431.347656 305.007812 431.347656 309.203125 431.535156 313.589844 C 431.535156 317.976562 431.726562 322.167969 431.917969 326.554688 C 431.917969 326.746094 432.109375 326.9375 432.300781 326.9375 C 432.488281 326.9375 432.679688 326.746094 432.679688 326.554688 C 432.871094 322.167969 433.0625 317.976562 433.0625 313.589844 C 433.253906 309.203125 433.0625 305.007812 433.253906 300.625 C 433.253906 296.238281 433.253906 292.042969 433.0625 287.65625 C 433.0625 283.652344 432.871094 279.269531 432.679688 275.074219 Z M 432.679688 275.074219 " fill-opacity="1" fill-rule="nonzero"/><path fill="#27392e" d="M 432.679688 239.417969 C 432.679688 239.226562 432.488281 239.035156 432.300781 239.035156 C 432.109375 239.035156 431.917969 239.226562 431.917969 239.417969 C 431.726562 241.703125 431.535156 244.183594 431.535156 246.472656 C 431.347656 248.757812 431.347656 251.238281 431.347656 253.527344 C 431.347656 255.816406 431.347656 258.292969 431.535156 260.582031 C 431.535156 262.871094 431.726562 265.347656 431.917969 267.636719 C 431.917969 267.828125 432.109375 268.019531 432.300781 268.019531 C 432.488281 268.019531 432.679688 267.828125 432.679688 267.636719 C 432.871094 265.347656 433.0625 262.871094 433.0625 260.582031 C 433.253906 258.292969 433.253906 255.816406 433.253906 253.527344 C 433.253906 251.238281 433.253906 248.757812 433.0625 246.472656 C 433.0625 244.183594 432.871094 241.703125 432.679688 239.417969 Z M 432.679688 239.417969 " fill-opacity="1" fill-rule="nonzero"/><path fill="#27392e" d="M 106.617188 188.886719 C 106.617188 188.695312 106.425781 188.507812 106.234375 188.507812 C 106.046875 188.507812 105.855469 188.695312 105.855469 188.886719 C 105.664062 201.089844 105.472656 213.292969 105.472656 225.496094 L 105.28125 262.105469 L 105.472656 298.714844 C 105.472656 310.917969 105.664062 323.125 105.855469 335.328125 C 105.855469 335.515625 106.046875 335.707031 106.234375 335.707031 C 106.425781 335.707031 106.617188 335.515625 106.617188 335.328125 C 106.808594 323.125 107 310.917969 107 298.714844 L 107.1875 262.105469 L 107 225.496094 C 107 213.292969 106.808594 201.089844 106.617188 188.886719 Z M 106.617188 188.886719 " fill-opacity="1" fill-rule="nonzero"/><path fill="#27392e" d="M 759.125 219.777344 C 759.125 216.917969 759.125 214.054688 759.316406 211.195312 C 759.316406 207.382812 759.316406 203.761719 759.125 199.945312 C 759.125 196.132812 758.933594 192.511719 758.746094 188.695312 C 758.746094 188.507812 758.554688 188.316406 758.363281 188.316406 C 758.171875 188.316406 757.980469 188.507812 757.980469 188.695312 C 757.789062 192.511719 757.601562 196.132812 757.601562 199.945312 C 757.601562 203.761719 757.601562 207.382812 757.410156 211.195312 C 757.410156 214.054688 757.410156 217.109375 757.601562 219.96875 Z M 759.125 219.777344 " fill-opacity="1" fill-rule="nonzero"/><path fill="#27392e" d="M 763.703125 227.023438 C 762.175781 227.402344 760.460938 227.59375 758.933594 227.976562 L 757.601562 228.167969 C 757.410156 228.167969 757.410156 228.167969 757.21875 228.167969 C 755.121094 228.546875 753.023438 228.929688 750.734375 228.738281 C 749.589844 228.738281 748.636719 228.738281 747.683594 228.546875 C 746.730469 228.355469 745.585938 228.167969 744.824219 227.785156 C 744.0625 227.402344 743.679688 226.832031 744.0625 225.878906 C 744.253906 225.117188 745.015625 224.351562 745.96875 223.589844 C 746.160156 223.398438 746.160156 223.210938 745.96875 223.019531 C 745.777344 222.828125 745.585938 222.828125 745.398438 222.828125 C 744.445312 223.398438 743.300781 223.972656 742.726562 225.304688 C 742.535156 225.878906 742.347656 226.640625 742.535156 227.402344 C 742.726562 228.167969 743.300781 228.738281 743.871094 229.121094 C 745.015625 229.882812 746.160156 230.074219 747.304688 230.265625 C 748.449219 230.453125 749.59375 230.644531 750.734375 230.644531 C 753.023438 230.644531 755.3125 230.265625 757.410156 229.691406 C 757.410156 229.691406 757.601562 229.691406 757.601562 229.691406 L 758.746094 229.3125 C 760.460938 228.738281 762.175781 228.167969 763.894531 227.402344 C 764.082031 227.402344 764.082031 227.214844 764.082031 227.023438 C 764.082031 227.023438 763.894531 226.832031 763.703125 227.023438 Z M 763.703125 227.023438 " fill-opacity="1" fill-rule="nonzero"/><path fill="#c97061" d="M 464.523438 118.527344 C 464.332031 118.148438 464.332031 117.765625 464.144531 117.382812 C 463.953125 117.003906 463.761719 116.621094 463.378906 116.429688 C 463.378906 116.429688 463.191406 116.238281 463.191406 116.238281 C 463 116.238281 462.617188 116.238281 462.617188 116.621094 C 462.425781 117.003906 462.425781 117.574219 462.617188 117.957031 C 462.617188 118.335938 462.808594 118.71875 462.808594 119.101562 C 463 119.480469 463.191406 119.863281 463.378906 120.246094 C 463.570312 120.625 463.953125 121.007812 464.332031 121.199219 C 464.332031 121.199219 464.523438 121.199219 464.523438 121.199219 C 464.714844 121.199219 464.90625 121.007812 464.90625 120.816406 C 464.90625 120.433594 464.90625 119.863281 464.90625 119.480469 C 464.714844 119.289062 464.714844 118.910156 464.523438 118.527344 Z M 464.523438 118.527344 " fill-opacity="1" fill-rule="nonzero"/><path fill="#c97061" d="M 503.613281 201.089844 C 502.660156 201.664062 501.707031 202.425781 500.945312 203.1875 C 500.183594 203.949219 499.417969 204.902344 498.847656 205.859375 C 498.273438 206.8125 497.703125 207.765625 497.320312 208.910156 C 496.941406 209.863281 496.558594 211.003906 496.558594 212.148438 C 496.558594 212.339844 496.558594 212.53125 496.75 212.53125 C 496.941406 212.722656 497.132812 212.53125 497.320312 212.339844 C 497.894531 211.386719 498.273438 210.433594 498.847656 209.671875 C 499.417969 208.71875 499.800781 207.953125 500.371094 207 C 500.945312 206.046875 501.515625 205.285156 502.089844 204.523438 C 502.660156 203.761719 503.421875 202.808594 503.996094 202.042969 C 503.996094 201.851562 504.1875 201.851562 503.996094 201.664062 C 503.996094 201.089844 503.804688 201.089844 503.613281 201.089844 Z M 503.613281 201.089844 " fill-opacity="1" fill-rule="nonzero"/><path fill="#c97061" d="M 452.320312 117.003906 C 452.128906 116.621094 451.941406 116.238281 451.75 115.859375 C 451.558594 115.476562 451.175781 115.097656 450.796875 114.90625 C 450.796875 114.90625 450.605469 114.90625 450.605469 114.714844 C 450.414062 114.714844 450.222656 114.90625 450.03125 115.097656 C 450.03125 115.667969 450.03125 116.050781 450.222656 116.429688 C 450.222656 116.8125 450.414062 117.191406 450.605469 117.574219 C 450.796875 117.957031 450.984375 118.335938 451.175781 118.71875 C 451.367188 119.101562 451.75 119.480469 452.128906 119.671875 C 452.128906 119.671875 452.320312 119.671875 452.320312 119.671875 C 452.511719 119.671875 452.703125 119.480469 452.703125 119.289062 C 452.703125 118.71875 452.703125 118.335938 452.511719 117.957031 C 452.703125 117.765625 452.511719 117.382812 452.320312 117.003906 Z M 452.320312 117.003906 " fill-opacity="1" fill-rule="nonzero"/><path fill="#c97061" d="M 498.085938 152.660156 C 498.085938 152.851562 498.273438 152.851562 498.464844 152.851562 C 498.65625 152.851562 498.847656 152.660156 498.847656 152.46875 C 498.847656 150.753906 498.847656 149.226562 498.65625 147.511719 C 498.464844 145.792969 498.273438 144.269531 497.894531 142.554688 C 497.511719 140.835938 497.132812 139.3125 496.75 137.785156 C 496.175781 136.261719 495.796875 134.542969 495.035156 133.019531 C 495.035156 132.828125 494.84375 132.828125 494.652344 132.828125 C 494.460938 132.828125 494.269531 133.019531 494.269531 133.210938 C 494.460938 134.925781 494.84375 136.453125 495.035156 137.976562 L 495.988281 142.742188 L 496.941406 147.511719 C 497.320312 149.417969 497.703125 151.132812 498.085938 152.660156 Z M 498.085938 152.660156 " fill-opacity="1" fill-rule="nonzero"/><path fill="#c97061" d="M 477.679688 128.253906 C 477.492188 127.488281 477.300781 126.917969 476.917969 126.15625 C 476.726562 125.390625 476.347656 124.820312 475.964844 124.25 C 475.964844 124.058594 475.773438 124.058594 475.582031 124.058594 C 475.394531 124.058594 475.203125 124.25 475.203125 124.4375 C 475.203125 125.203125 475.203125 125.964844 475.394531 126.726562 C 475.585938 127.488281 475.585938 128.253906 475.773438 128.824219 C 475.964844 129.585938 476.15625 130.160156 476.539062 130.921875 C 476.917969 131.683594 477.109375 132.257812 477.492188 132.828125 C 477.492188 133.019531 477.679688 133.019531 477.871094 133.019531 C 478.0625 133.019531 478.253906 132.828125 478.253906 132.636719 C 478.253906 131.875 478.253906 131.113281 478.0625 130.351562 C 478.0625 129.777344 477.871094 129.015625 477.679688 128.253906 Z M 477.679688 128.253906 " fill-opacity="1" fill-rule="nonzero"/><path fill="#c97061" d="M 440.878906 117.003906 C 440.691406 116.621094 440.5 116.429688 440.308594 116.238281 C 440.117188 116.050781 439.734375 115.667969 439.355469 115.476562 C 439.355469 115.476562 439.164062 115.476562 439.164062 115.476562 C 438.972656 115.476562 438.59375 115.667969 438.59375 115.859375 C 438.59375 116.238281 438.59375 116.621094 438.78125 117.003906 C 438.972656 117.382812 438.972656 117.765625 439.164062 117.957031 C 439.355469 118.335938 439.546875 118.527344 439.925781 118.71875 C 440.117188 118.910156 440.5 119.289062 440.878906 119.480469 C 440.878906 119.480469 441.070312 119.480469 441.070312 119.480469 C 441.261719 119.480469 441.453125 119.289062 441.453125 119.101562 C 441.453125 118.71875 441.453125 118.335938 441.261719 117.957031 C 441.070312 117.765625 441.070312 117.382812 440.878906 117.003906 Z M 440.878906 117.003906 " fill-opacity="1" fill-rule="nonzero"/><path fill="#c97061" d="M 371.089844 107.277344 C 366.132812 105.753906 361.175781 104.226562 356.21875 102.894531 L 341.34375 98.699219 L 326.472656 94.882812 C 321.515625 93.550781 316.554688 92.40625 311.40625 91.261719 C 311.21875 91.261719 311.027344 91.261719 311.027344 91.453125 C 311.027344 91.644531 311.027344 91.832031 311.21875 91.832031 C 316.175781 93.359375 321.132812 94.882812 326.089844 96.21875 L 340.964844 100.414062 L 355.835938 104.417969 C 360.792969 105.753906 365.753906 106.898438 370.902344 108.039062 C 371.089844 108.039062 371.28125 108.039062 371.472656 107.851562 C 371.472656 107.660156 371.28125 107.46875 371.089844 107.277344 Z M 371.089844 107.277344 " fill-opacity="1" fill-rule="nonzero"/><path fill="#c97061" d="M 881.925781 137.785156 C 884.59375 136.453125 887.261719 135.117188 889.933594 133.589844 C 892.601562 132.066406 895.082031 130.539062 897.75 129.207031 C 900.230469 127.679688 902.898438 126.15625 905.378906 124.4375 C 907.855469 122.914062 910.335938 121.199219 912.8125 119.480469 C 913.003906 119.289062 913.003906 119.101562 913.003906 119.101562 C 913.003906 118.910156 912.625 118.910156 912.433594 118.910156 C 909.761719 120.246094 907.09375 121.578125 904.425781 123.105469 C 901.753906 124.628906 899.277344 126.15625 896.605469 127.488281 C 894.128906 129.015625 891.457031 130.539062 888.980469 132.257812 C 886.5 133.78125 883.832031 135.5 881.542969 137.214844 C 881.351562 137.40625 881.351562 137.59375 881.351562 137.785156 C 881.542969 137.785156 881.734375 137.785156 881.925781 137.785156 Z M 881.925781 137.785156 " fill-opacity="1" fill-rule="nonzero"/><path fill="#c97061" d="M 825.484375 219.015625 C 826.816406 219.015625 828.34375 218.824219 829.675781 218.824219 C 831.011719 218.632812 832.347656 218.441406 833.683594 218.25 C 835.015625 218.0625 836.351562 217.679688 837.6875 217.488281 C 839.019531 217.109375 840.355469 216.917969 841.691406 216.34375 C 841.882812 216.34375 841.882812 216.152344 841.882812 215.964844 C 841.882812 215.773438 841.691406 215.582031 841.5 215.582031 C 840.164062 215.582031 838.640625 215.773438 837.304688 215.773438 C 835.96875 215.964844 834.636719 216.152344 833.300781 216.34375 C 831.964844 216.535156 830.632812 216.726562 829.296875 217.109375 C 827.960938 217.488281 826.625 217.679688 825.292969 218.25 C 825.101562 218.25 825.101562 218.441406 825.101562 218.632812 C 824.910156 218.824219 825.101562 219.015625 825.484375 219.015625 Z M 825.484375 219.015625 " fill-opacity="1" fill-rule="nonzero"/><path fill="#c97061" d="M 353.167969 233.125 L 340.011719 231.40625 L 326.851562 229.691406 L 313.695312 227.976562 L 300.539062 226.449219 C 300.347656 226.449219 300.15625 226.640625 300.15625 226.832031 C 300.15625 227.023438 300.15625 227.214844 300.539062 227.402344 C 304.925781 228.355469 309.3125 229.121094 313.695312 229.882812 C 318.082031 230.644531 322.46875 231.21875 326.851562 231.789062 C 331.238281 232.363281 335.625 232.933594 340.011719 233.316406 C 344.394531 233.695312 348.78125 234.078125 353.359375 234.269531 C 353.546875 234.269531 353.738281 234.078125 353.738281 233.886719 C 353.546875 233.316406 353.359375 233.125 353.167969 233.125 Z M 353.167969 233.125 " fill-opacity="1" fill-rule="nonzero"/><path fill="#c97061" d="M 221.40625 89.164062 C 211.300781 91.261719 201.195312 93.550781 191.089844 95.648438 L 160.960938 102.511719 C 150.855469 104.800781 140.75 107.277344 130.832031 109.566406 C 128.355469 109.949219 125.875 109.949219 123.207031 109.949219 C 120.726562 109.949219 118.058594 109.949219 115.578125 109.757812 C 110.429688 109.566406 105.28125 109.183594 100.324219 108.039062 C 100.132812 108.039062 99.945312 108.039062 99.753906 108.421875 C 99.753906 108.613281 99.753906 108.804688 99.945312 108.996094 C 105.09375 110.328125 110.238281 110.902344 115.386719 111.28125 C 118.058594 111.472656 120.535156 111.472656 123.207031 111.664062 C 125.683594 111.664062 128.355469 111.855469 131.023438 111.472656 C 133.695312 111.089844 136.171875 110.328125 138.652344 109.949219 L 146.277344 108.230469 L 161.34375 104.800781 L 191.46875 97.746094 C 201.574219 95.265625 211.492188 92.785156 221.597656 90.308594 C 221.789062 90.308594 221.980469 90.117188 221.789062 89.925781 C 221.789062 89.164062 221.597656 88.972656 221.40625 89.164062 Z M 221.40625 89.164062 " fill-opacity="1" fill-rule="nonzero"/><path fill="#c97061" d="M 834.253906 211.195312 C 835.398438 211.003906 836.351562 210.816406 837.496094 210.625 C 838.640625 210.433594 839.59375 210.050781 840.546875 209.671875 C 841.5 209.289062 842.644531 208.910156 843.597656 208.527344 C 844.550781 208.144531 845.503906 207.574219 846.457031 207 C 846.648438 207 846.648438 206.8125 846.648438 206.621094 C 846.648438 206.429688 846.457031 206.238281 846.265625 206.238281 C 845.121094 206.429688 844.167969 206.621094 843.023438 206.8125 C 841.882812 207 840.929688 207.382812 839.972656 207.765625 C 839.59375 207.953125 839.210938 207.953125 838.832031 208.144531 C 844.167969 201.664062 848.9375 194.796875 854.085938 188.125 C 859.613281 180.878906 865.335938 173.632812 871.628906 167.152344 C 877.917969 160.476562 884.59375 154.375 892.410156 149.800781 C 896.226562 147.511719 900.609375 145.792969 904.996094 145.03125 C 909.382812 144.269531 913.957031 144.460938 918.34375 145.984375 C 918.535156 145.984375 918.726562 145.984375 918.726562 145.792969 C 918.726562 145.605469 918.726562 145.414062 918.535156 145.414062 C 914.148438 143.699219 909.382812 143.125 904.804688 143.886719 C 900.230469 144.652344 895.84375 146.367188 891.648438 148.464844 C 883.449219 153.039062 876.585938 159.332031 870.292969 165.816406 C 864 172.488281 858.28125 179.734375 852.941406 187.171875 C 850.269531 190.792969 847.601562 194.609375 844.933594 198.421875 C 842.453125 201.851562 840.164062 205.476562 837.496094 208.71875 C 837.304688 208.71875 837.304688 208.71875 837.113281 208.910156 C 836.160156 209.289062 835.207031 209.863281 834.253906 210.242188 C 834.0625 210.242188 834.0625 210.433594 834.0625 210.625 C 833.871094 211.195312 834.0625 211.195312 834.253906 211.195312 Z M 834.253906 211.195312 " fill-opacity="1" fill-rule="nonzero"/><path fill="#c97061" d="M 710.691406 156.664062 C 710.3125 156.855469 709.929688 157.042969 709.550781 157.425781 C 709.167969 157.617188 708.976562 157.996094 708.785156 158.378906 C 708.59375 158.761719 708.40625 159.140625 708.214844 159.523438 C 708.023438 159.90625 707.832031 160.285156 707.832031 160.859375 C 707.832031 160.859375 707.832031 161.046875 707.832031 161.046875 C 707.832031 161.238281 708.214844 161.429688 708.40625 161.238281 C 708.785156 161.046875 709.167969 160.859375 709.550781 160.476562 C 709.929688 160.285156 710.121094 159.90625 710.3125 159.523438 C 710.503906 159.140625 710.691406 158.761719 710.882812 158.378906 C 711.074219 157.996094 711.265625 157.617188 711.265625 157.042969 C 711.265625 157.042969 711.265625 156.855469 711.265625 156.855469 C 711.265625 156.664062 711.074219 156.664062 710.691406 156.664062 Z M 710.691406 156.664062 " fill-opacity="1" fill-rule="nonzero"/><path fill="#c97061" d="M 724.230469 133.78125 C 722.515625 135.5 720.800781 137.40625 719.273438 139.121094 L 714.316406 144.460938 L 709.550781 149.988281 C 708.023438 151.894531 706.308594 153.613281 704.78125 155.519531 C 704.589844 155.710938 704.589844 155.902344 704.78125 155.902344 C 704.972656 156.089844 705.164062 156.089844 705.355469 155.902344 C 707.261719 154.375 708.976562 152.660156 710.691406 150.941406 C 712.410156 149.226562 714.125 147.511719 715.839844 145.605469 C 717.367188 143.699219 719.082031 141.980469 720.609375 140.074219 C 722.132812 138.167969 723.660156 136.261719 724.992188 134.164062 C 725.183594 133.972656 724.992188 133.78125 724.992188 133.589844 C 724.613281 133.78125 724.230469 133.78125 724.230469 133.78125 Z M 724.230469 133.78125 " fill-opacity="1" fill-rule="nonzero"/><path fill="#c97061" d="M 509.90625 143.699219 C 509.335938 141.601562 508.570312 139.503906 507.617188 137.40625 C 506.855469 135.308594 505.902344 133.402344 504.949219 131.304688 C 504.949219 131.113281 504.757812 131.113281 504.566406 131.113281 C 504.375 131.113281 504.1875 131.304688 504.1875 131.683594 C 504.757812 133.78125 505.332031 135.878906 506.09375 137.976562 C 506.664062 140.074219 507.425781 142.171875 508 144.269531 C 508.570312 146.367188 509.144531 148.464844 509.523438 150.5625 C 509.90625 152.660156 510.289062 154.757812 510.289062 157.042969 C 510.289062 157.234375 510.480469 157.425781 510.667969 157.425781 C 510.859375 157.425781 511.050781 157.234375 511.050781 157.042969 C 511.433594 154.757812 511.242188 152.46875 511.050781 150.371094 C 511.050781 148.082031 510.667969 145.792969 509.90625 143.699219 Z M 509.90625 143.699219 " fill-opacity="1" fill-rule="nonzero"/><path fill="#c97061" d="M 740.628906 176.492188 C 740.4375 176.492188 740.25 176.492188 740.25 176.683594 C 738.722656 180.308594 737.386719 183.929688 736.054688 187.742188 C 734.71875 191.367188 733.574219 195.179688 732.429688 198.992188 C 731.859375 200.710938 731.476562 202.617188 730.90625 204.332031 L 732.429688 205.476562 C 733.003906 203.378906 733.574219 201.472656 734.148438 199.566406 C 735.289062 195.75 736.433594 192.128906 737.578125 188.316406 L 741.011719 177.066406 C 740.820312 176.875 740.820312 176.683594 740.628906 176.492188 Z M 740.628906 176.492188 " fill-opacity="1" fill-rule="nonzero"/><path fill="#c97061" d="M 927.117188 179.542969 C 926.925781 179.355469 926.734375 179.542969 926.542969 179.734375 C 923.300781 184.882812 919.871094 190.03125 916.4375 195.179688 C 913.003906 200.328125 909.574219 205.476562 906.140625 210.433594 C 899.085938 220.539062 891.839844 230.644531 883.640625 239.605469 C 881.542969 241.894531 879.445312 243.992188 877.15625 246.089844 C 876.011719 247.042969 874.867188 247.996094 873.535156 248.757812 C 872.199219 249.523438 871.054688 250.476562 869.71875 251.238281 C 864.382812 254.289062 858.660156 256.578125 852.941406 258.675781 C 847.21875 260.773438 841.308594 262.488281 835.207031 264.011719 C 829.296875 265.539062 823.195312 266.875 817.09375 268.019531 C 816.902344 268.019531 816.710938 268.207031 816.710938 268.398438 C 816.710938 268.589844 816.902344 268.78125 817.09375 268.78125 C 829.296875 266.875 841.5 264.203125 853.132812 260.390625 C 859.042969 258.484375 864.761719 256.195312 870.292969 253.144531 C 871.628906 252.382812 872.960938 251.429688 874.296875 250.667969 C 875.632812 249.902344 876.777344 248.757812 878.109375 247.804688 C 880.398438 245.707031 882.6875 243.613281 884.785156 241.132812 C 888.980469 236.554688 892.792969 231.597656 896.414062 226.640625 C 900.039062 221.683594 903.660156 216.726562 907.09375 211.578125 C 913.957031 201.28125 920.632812 190.792969 926.925781 180.308594 C 927.304688 179.925781 927.304688 179.734375 927.117188 179.542969 Z M 927.117188 179.542969 " fill-opacity="1" fill-rule="nonzero"/><path fill="#c97061" d="M 519.632812 142.742188 C 518.679688 140.457031 517.535156 138.167969 516.390625 135.878906 C 515.246094 133.589844 513.910156 131.492188 512.574219 129.398438 C 512.386719 129.207031 512.195312 129.207031 512.003906 129.207031 C 511.8125 129.207031 511.621094 129.585938 511.8125 129.777344 C 512.765625 132.066406 513.910156 134.355469 514.863281 136.640625 C 515.816406 138.929688 516.960938 141.21875 517.722656 143.507812 C 518.679688 145.792969 519.441406 148.082031 520.203125 150.371094 C 520.773438 152.660156 521.347656 155.136719 521.539062 157.617188 C 521.539062 157.808594 521.730469 157.996094 521.917969 157.996094 C 522.109375 157.996094 522.300781 157.808594 522.300781 157.617188 C 522.683594 155.136719 522.300781 152.46875 521.917969 149.988281 C 521.347656 147.511719 520.585938 145.03125 519.632812 142.742188 Z M 519.632812 142.742188 " fill-opacity="1" fill-rule="nonzero"/><path fill="#c97061" d="M 644.910156 82.871094 C 645.097656 82.679688 645.097656 82.492188 644.910156 82.300781 C 644.335938 81.726562 643.574219 80.964844 643 80.394531 C 642.429688 79.628906 641.855469 79.058594 641.285156 78.296875 C 640.714844 77.722656 639.949219 76.960938 639.1875 76.390625 C 638.425781 75.816406 637.664062 75.433594 636.710938 75.054688 C 636.519531 75.054688 636.328125 75.054688 636.328125 75.054688 C 636.136719 75.246094 636.136719 75.433594 636.328125 75.625 C 636.898438 76.390625 637.664062 76.960938 638.234375 77.53125 L 640.140625 79.441406 C 640.714844 80.011719 641.476562 80.773438 642.238281 81.347656 C 643 81.917969 643.953125 82.492188 644.910156 82.679688 C 644.527344 82.871094 644.71875 82.871094 644.910156 82.871094 Z M 644.910156 82.871094 " fill-opacity="1" fill-rule="nonzero"/><path fill="#c97061" d="M 673.511719 60.753906 C 672.9375 59.800781 672.367188 58.847656 671.414062 58.273438 C 670.460938 57.703125 669.507812 57.128906 668.550781 57.128906 C 668.363281 57.128906 668.363281 57.128906 668.171875 57.320312 C 667.980469 57.511719 668.171875 57.703125 668.363281 57.894531 C 669.886719 58.847656 671.222656 60.179688 671.984375 61.707031 C 672.367188 62.46875 672.558594 63.230469 672.9375 64.183594 C 673.128906 65.140625 673.320312 65.902344 673.511719 66.855469 C 673.511719 67.046875 673.699219 67.046875 673.890625 67.234375 C 674.082031 67.234375 674.273438 67.234375 674.464844 67.046875 C 674.65625 66.472656 674.65625 66.09375 674.84375 65.519531 C 674.84375 64.949219 674.84375 64.566406 674.84375 63.996094 C 674.273438 62.851562 673.890625 61.707031 673.511719 60.753906 Z M 673.511719 60.753906 " fill-opacity="1" fill-rule="nonzero"/><path fill="#c97061" d="M 692.769531 91.832031 C 691.625 91.832031 690.671875 92.023438 689.527344 92.40625 C 688.574219 92.785156 687.429688 93.359375 686.667969 93.929688 C 686.476562 94.121094 686.285156 94.3125 686.285156 94.503906 C 686.285156 95.074219 686.476562 95.457031 687.046875 95.457031 C 687.621094 95.457031 688.003906 95.648438 688.382812 95.648438 C 688.574219 95.648438 688.765625 95.835938 688.765625 95.835938 C 688.765625 95.835938 688.957031 96.027344 688.957031 96.027344 C 689.144531 96.21875 689.144531 96.21875 688.957031 96.410156 C 688.765625 96.601562 688.382812 96.980469 688.191406 97.171875 C 687.429688 97.554688 686.667969 97.933594 685.714844 98.125 C 684.761719 98.316406 683.808594 98.316406 682.855469 98.316406 C 682.664062 98.316406 682.472656 98.507812 682.472656 98.507812 C 682.472656 98.699219 682.472656 98.886719 682.664062 98.886719 C 683.617188 99.078125 684.570312 99.269531 685.714844 99.269531 C 686.859375 99.269531 688.003906 99.078125 688.957031 98.507812 C 689.527344 98.125 689.910156 97.933594 690.480469 97.363281 C 690.671875 96.980469 690.863281 96.601562 690.863281 96.027344 C 690.863281 95.648438 690.671875 95.074219 690.480469 94.882812 C 690.289062 94.503906 689.910156 94.3125 689.71875 94.121094 C 689.527344 94.121094 689.527344 93.929688 689.335938 93.929688 C 689.527344 93.738281 689.71875 93.738281 689.910156 93.550781 C 690.863281 93.167969 691.625 92.597656 692.769531 92.40625 C 692.960938 92.40625 693.152344 92.214844 692.960938 92.023438 C 693.148438 92.023438 692.960938 91.832031 692.769531 91.832031 Z M 692.769531 91.832031 " fill-opacity="1" fill-rule="nonzero"/><path fill="#c97061" d="M 659.398438 109.566406 C 658.066406 109.375 656.730469 108.996094 655.394531 108.804688 C 654.0625 108.421875 652.726562 108.039062 651.390625 107.660156 C 650.054688 107.277344 648.914062 106.707031 647.578125 106.324219 L 643.765625 104.800781 C 643.574219 104.800781 643.382812 104.800781 643.382812 104.988281 C 643.191406 105.179688 643.191406 105.371094 643.382812 105.5625 C 644.527344 106.515625 645.671875 107.277344 647.003906 107.851562 C 648.339844 108.613281 649.675781 108.996094 651.011719 109.566406 C 652.34375 109.949219 653.871094 110.328125 655.203125 110.519531 C 656.730469 110.710938 658.066406 110.710938 659.589844 110.519531 C 659.78125 110.519531 659.78125 110.328125 659.972656 110.136719 C 659.78125 109.757812 659.589844 109.566406 659.398438 109.566406 Z M 659.398438 109.566406 " fill-opacity="1" fill-rule="nonzero"/><path fill="#27392e" d="M 622.597656 279.078125 L 561.773438 278.886719 L 500.945312 279.078125 C 480.730469 279.078125 460.328125 279.269531 440.117188 279.457031 C 439.925781 279.457031 439.734375 279.648438 439.734375 279.839844 C 439.734375 280.03125 439.925781 280.222656 440.117188 280.222656 C 460.328125 280.410156 480.730469 280.601562 500.945312 280.601562 L 561.773438 280.792969 L 622.597656 280.601562 C 629.464844 280.601562 636.328125 280.601562 643.191406 280.410156 L 643.765625 279.078125 C 636.707031 279.078125 629.652344 279.078125 622.597656 279.078125 Z M 622.597656 279.078125 " fill-opacity="1" fill-rule="nonzero"/></svg>